<svg width="770" height="868" viewBox="0 0 770 868" fill="none" xmlns="http://www.w3.org/2000/svg">
<g clip-path="url(#clip0_2_259)">
<path fill-rule="evenodd" clip-rule="evenodd" d="M-102.324 310.937C-103.58 315.117 -103.405 319.595 -101.825 323.663C-75.0241 323.387 -48.3127 320.528 -22.0631 315.125C4.12729 310.336 29.821 303.153 54.6928 293.666C79.5329 284.478 103.515 273.127 126.362 259.745C161.667 239.055 193.692 213.235 221.383 183.136C231.321 172.41 240.585 161.081 249.125 149.215C253.354 151.031 257.932 151.898 262.534 151.754C269.709 151.904 276.774 149.98 282.879 146.215C288.58 142.672 293.529 138.047 297.444 132.601C301.348 127.345 304.392 121.503 306.461 115.295C308.189 109.921 309.123 104.324 309.235 98.6808C309.418 93.2891 308.139 87.9486 305.536 83.2209C304.355 81.1143 302.598 79.3873 300.468 78.2429C298.339 77.0985 295.927 76.5843 293.514 76.7599C289.8 76.87 286.259 78.3496 283.573 80.9132C279.789 84.3097 276.379 88.0999 273.401 92.2198C269.933 96.8348 266.233 101.912 262.766 107.68C260.453 111.528 257.935 115.375 255.417 119.222C254.159 121.143 252.901 123.065 251.669 124.987C247.219 123.112 242.894 120.954 238.722 118.526L225.544 111.603C221.383 109.526 216.989 107.68 213.059 106.065C209.267 104.742 205.286 104.041 201.269 103.988C192.889 103.879 184.726 106.649 178.15 111.834C169.669 118.905 162.607 127.519 157.342 137.216C157.02 137.731 156.644 138.298 156.23 138.925C155.156 140.548 153.821 142.565 152.487 145.062C151.845 146.263 151.092 147.38 150.382 148.434C149.046 150.417 147.862 152.173 147.862 153.831C153.411 156.6 158.498 154.754 162.89 147.601C166.856 140.735 172.116 134.701 178.38 129.832C183.313 126.581 189.116 124.893 195.026 124.987C198.658 124.907 202.269 125.534 205.66 126.832C209.249 128.084 212.729 129.627 216.064 131.448C219.532 133.294 223 135.37 226.468 137.678C229.932 139.982 233.627 142.057 237.321 144.131L237.335 144.139C228.304 155.064 218.656 165.464 208.436 175.29C198.264 185.213 187.629 194.443 176.531 203.673C157.407 218.911 137.072 232.57 115.728 244.516C94.2318 256.443 71.8107 266.629 48.6816 274.975C25.714 283.38 2.03772 289.713 -22.0631 293.897C-46.0861 298.317 -70.4614 300.556 -94.8891 300.588C-98.4521 303.116 -101.068 306.758 -102.324 310.937ZM283.341 102.143C285.05 100.759 287.155 99.9508 289.353 99.8356C290.429 99.6836 291.525 99.77 292.564 100.089C293.603 100.408 294.558 100.952 295.362 101.681C296.694 103.311 297.429 105.347 297.444 107.45C297.473 110.309 296.67 113.114 295.132 115.526C291.892 121.346 286.628 125.779 280.336 127.987C276.99 129.159 273.477 129.782 269.932 129.833H262.302L269.7 118.295C271.865 114.906 274.26 111.668 276.867 108.604C278.786 106.224 280.957 104.058 283.341 102.143Z" fill="white"/>
<path d="M294.901 189.828C292.444 189.84 290.009 189.37 287.734 188.443C285.213 187.366 282.933 185.797 281.029 183.828C290.015 179.6 298.284 173.994 305.535 167.214C312.69 160.654 318.568 152.831 322.874 144.139C327.697 134.621 331.049 124.43 332.815 113.911C335.07 100.803 336.153 87.5208 336.052 74.2215C336.052 68.0682 336.052 61.3765 336.052 54.1463C336.052 46.993 336.052 39.3782 336.052 31.0712C336.099 18.1111 338.287 5.24743 342.526 -7.00255C346.429 -19.3776 352.799 -30.837 361.253 -40.692C362.115 -40.5016 362.929 -40.1375 363.645 -39.6216C364.36 -39.1057 364.962 -38.4496 365.414 -37.6928C365.793 -36.4126 365.793 -35.05 365.414 -33.7697C365.398 -31.6185 364.925 -29.4954 364.027 -27.5397C362.653 -25.106 361.493 -22.5578 360.559 -19.9245C357.651 -13.5977 355.555 -6.93065 354.317 -0.0803058C354.317 6.84222 352.237 13.7651 351.543 21.1491C350.85 28.5331 351.543 35.4555 351.543 42.6088C351.543 49.762 351.543 56.4541 351.543 63.1459C351.495 76.6447 350.645 90.1288 348.999 103.527C347.516 116.521 344.808 129.347 340.908 141.832C339.152 147.26 337.067 152.577 334.665 157.753C332.063 163.278 328.803 168.469 324.956 173.214C321.324 177.699 316.945 181.524 312.009 184.52C306.993 188.011 301.016 189.866 294.901 189.828V189.828Z" fill="white"/>
<path d="M221.151 319.741C218.561 317.995 216.227 315.897 214.216 313.51C213.085 312.427 212.354 310.993 212.144 309.443C211.934 307.892 212.256 306.316 213.058 304.972L217.683 295.281C219.833 298.801 222.662 301.86 226.005 304.28C229.326 306.781 232.985 308.801 236.872 310.28C239.646 311.664 241.033 313.28 241.265 315.356C241.217 318.095 240.33 320.752 238.722 322.971L237.335 325.51C231.576 324.817 226.046 322.846 221.151 319.741V319.741Z" fill="white"/>
<path d="M330.273 278.205C328.942 291.328 326.781 304.353 323.8 317.202C320.704 329.937 316.686 342.43 311.778 354.584C306.845 366.109 300.724 377.09 293.514 387.351C286.841 396.974 278.91 405.665 269.932 413.195C260.245 420.498 249.483 426.259 238.027 430.271C225.57 434.351 212.53 436.376 199.419 436.27C190.026 436.954 180.595 435.642 171.747 432.421C162.9 429.199 154.837 424.14 148.093 417.579C135.943 403.447 129.731 385.177 130.754 366.583C130.846 352.528 133.51 338.609 138.615 325.51C143.579 312.533 149.691 300.023 156.879 288.128C161.272 289.974 162.891 292.512 162.197 295.742C160.911 300.455 159.128 305.019 156.879 309.357C153.117 317.423 149.95 325.752 147.401 334.278C145.084 342.698 143.916 351.391 143.932 360.122C143.498 367.426 144.658 374.737 147.333 381.55C150.007 388.363 154.132 394.515 159.422 399.58C171.479 409.675 186.945 414.793 202.656 413.887C214.999 414.091 227.282 412.138 238.952 408.118C249.308 404.605 259.001 399.379 267.621 392.658C275.942 386.125 283.195 378.34 289.121 369.583C295.089 360.861 300.051 351.494 303.917 341.662C307.605 331.78 310.392 321.586 312.241 311.203C314.071 300.997 314.999 290.651 315.015 280.283V274.052C315.015 271.514 315.015 269.437 315.015 267.822C314.763 264.008 315.914 260.234 318.252 257.207C319.137 256.086 320.258 255.174 321.537 254.536C322.816 253.898 324.219 253.549 325.649 253.515C329.17 255.246 333.054 256.116 336.978 256.053C337.547 258.17 337.547 260.398 336.978 262.514C336.932 266.723 335.818 270.851 333.741 274.514C332.836 275.957 331.657 277.21 330.273 278.205Z" fill="white"/>
<path d="M408.646 196.289C408.375 199.931 409.265 203.566 411.189 206.673C412.813 209.011 414.758 211.108 416.969 212.903L422.749 217.056C423.57 217.579 424.252 218.294 424.736 219.138C425.219 219.982 425.489 220.93 425.523 221.902C425.366 223.986 424.817 226.021 423.904 227.902C422.739 230.262 421.345 232.504 419.743 234.594C418.05 236.6 416.108 238.384 413.963 239.901C412.21 241.363 410.007 242.178 407.722 242.208C405.981 240.218 403.853 238.599 401.47 237.449C399.086 236.299 396.494 235.642 393.85 235.517C390.116 235.533 386.541 237.027 383.909 239.67C380.371 243.214 377.267 247.165 374.662 251.439C372.365 254.869 369.896 258.18 367.264 261.361C364.366 264.706 361.109 267.723 357.552 270.36C353.816 273.116 349.686 275.294 345.3 276.821C340.393 278.516 335.234 279.374 330.041 279.359C328.076 275.501 327.533 271.076 328.505 266.858C329.477 262.641 331.903 258.898 335.359 256.284C340.386 256.48 345.385 255.45 349.924 253.284C353.879 251.446 357.539 249.036 360.79 246.131C363.849 243.305 366.566 240.13 368.882 236.67C371.105 233.189 373.576 229.873 376.279 226.748C379.079 223.954 382.181 221.477 385.527 219.364C388.608 217.006 392.296 215.566 396.163 215.211L408.646 196.289Z" fill="white"/>
<path d="M395.237 214.287C394.077 209.043 394.077 203.61 395.237 198.366C396.348 193.27 397.816 188.258 399.63 183.367C401.479 178.752 403.33 174.137 404.948 169.522C406.52 165.549 407.381 161.331 407.491 157.061C407.491 154.292 407.491 150.6 407.491 145.985C407.491 141.37 407.491 136.986 407.491 132.371C407.491 127.756 407.491 123.141 407.491 118.526C407.491 113.911 407.491 109.988 407.491 106.757C407.391 98.6513 407.932 90.5501 409.109 82.5289C409.968 75.8493 411.517 69.2762 413.732 62.9149C415.783 57.1262 418.418 51.5597 421.593 46.3008C424.826 40.9589 428.459 35.8679 432.46 31.0712C433.409 31.2693 434.308 31.6581 435.103 32.2134C435.898 32.7687 436.571 33.4792 437.083 34.302C438.022 35.9954 438.5 37.9046 438.47 39.8398C438.183 42.0274 437.719 44.1881 437.083 46.3008C436.221 48.5916 435.217 50.8268 434.077 52.9928C429.166 62.6523 426.556 73.3129 426.449 84.1443C426.449 96.1434 426.449 109.988 426.449 124.987C427.079 135.092 426.535 145.235 424.83 155.215C422.912 166.327 419.079 177.023 413.502 186.828C411.86 189.305 410.903 192.171 410.728 195.135C410.864 197.749 410.864 200.367 410.728 202.981C410.679 205.054 410.207 207.095 409.341 208.98C408.38 210.675 406.929 212.042 405.178 212.903C402.073 214.333 398.615 214.814 395.237 214.287V214.287Z" fill="white"/>
<path d="M462.976 473.19C460.272 471.599 457.85 469.571 455.81 467.19C454.871 465.921 454.365 464.384 454.365 462.806C454.365 461.228 454.871 459.691 455.81 458.422L460.434 448.73C462.584 452.25 465.413 455.309 468.756 457.729C472.215 460.01 475.849 462.017 479.623 463.729C482.397 465.114 483.785 466.729 484.016 468.806C483.999 471.549 483.109 474.216 481.473 476.421L480.086 478.959C473.975 478.567 468.074 476.577 462.976 473.19V473.19Z" fill="white"/>
<path d="M131.217 498.803H110.872C102.549 498.803 93.5329 498.803 83.8228 497.188C74.1128 495.573 64.4025 495.111 54.6924 493.496C45.6309 491.815 36.7339 489.344 28.1048 486.112C21.0096 483.352 14.5006 479.281 8.91685 474.113C6.44505 471.832 4.50239 469.039 3.22453 465.93C1.94668 462.821 1.36429 459.471 1.51853 456.115V454.499C1.62772 454.122 1.62772 453.723 1.51853 453.346C21.1238 462.315 41.9079 468.452 63.2464 471.575C86.7958 475.316 110.608 477.168 134.454 477.113C157.643 477.123 180.809 475.658 203.812 472.729C227.181 469.467 250.34 464.844 273.169 458.884C296.292 452.882 318.934 445.169 340.908 435.808C362.548 426.308 383.285 414.878 402.867 401.657C411.777 395.762 420.345 389.368 428.529 382.505C438.049 374.677 447.083 366.277 455.58 357.353C463.981 348.642 471.71 339.308 478.699 329.432C485.317 320.959 490.473 311.445 493.957 301.28C492.445 300.54 490.786 300.146 489.102 300.127H481.473H472.919H464.134C457.392 300.341 450.684 299.081 444.482 296.435C441.792 294.976 439.604 292.744 438.202 290.028C436.801 287.312 436.251 284.238 436.622 281.205C436.609 277.378 437.154 273.569 438.241 269.898C439.396 265.976 440.783 262.053 442.402 257.9C444.02 253.746 445.869 250.054 447.95 246.131C450.031 242.208 451.649 238.747 453.267 235.055L464.134 213.595C467.139 207.596 469.451 202.519 471.301 197.904C473.038 193.818 474.355 189.565 475.231 185.213C476.199 181.053 476.664 176.792 476.618 172.522C476.843 166.213 474.884 160.02 471.069 154.984C466.892 149.951 461.69 145.862 455.81 142.985L468.064 119.91C475.581 122.883 481.914 128.233 486.096 135.14C490.09 142.173 492.163 150.131 492.107 158.215C492.085 166.003 491.075 173.756 489.102 181.29C487.056 189.137 484.509 196.844 481.473 204.365C478.529 211.608 475.21 218.694 471.531 225.594L461.36 244.054C458.354 249.593 455.811 254.669 453.73 258.822C452.094 261.986 451.074 265.432 450.724 268.975C450.749 270.038 451.035 271.08 451.56 272.005C452.084 272.931 452.83 273.713 453.73 274.283C456.247 275.62 458.99 276.48 461.821 276.821C465.593 277.078 469.378 277.078 473.149 276.821H493.957C496.346 276.948 498.694 277.495 500.893 278.436C501.87 278.793 502.765 279.346 503.52 280.06C504.275 280.774 504.876 281.635 505.285 282.589C506.403 285.214 506.955 288.045 506.904 290.897C506.785 297.543 505.453 304.111 502.974 310.28C500.273 317.331 496.946 324.127 493.033 330.586C489.176 337.341 484.85 343.818 480.086 349.969C475.231 356.199 470.838 361.737 466.677 366.352C446.298 388.908 422.97 408.622 397.319 424.963C370.806 441.655 342.597 455.501 313.165 466.268C254.834 487.421 193.278 498.351 131.217 498.573V498.803Z" fill="white"/>
<path d="M556.924 311.865C554.409 309.44 552.479 306.476 551.278 303.199C550.077 299.922 549.635 296.415 549.988 292.943L562.472 267.56C563.945 265.038 565.733 262.713 567.79 260.638C569.186 259.274 570.856 258.218 572.688 257.542C574.521 256.866 576.475 256.584 578.424 256.715C582.548 256.614 586.597 257.826 589.984 260.176C593.392 262.619 596.232 265.767 598.308 269.406C600.437 273.18 602.068 277.214 603.162 281.406C604.109 285.34 604.651 289.36 604.781 293.404C604.621 306.682 602.036 319.819 597.151 332.17C592.337 345.483 585.303 357.888 576.344 368.86C567.746 379.961 557.068 389.287 544.903 396.319C533.088 403.561 519.463 407.32 505.6 407.164C498.805 407.441 492.047 406.013 485.948 403.011C483.645 401.742 481.738 399.865 480.433 397.586C479.128 395.307 478.477 392.713 478.551 390.089C478.204 388.57 478.204 386.993 478.551 385.474C478.551 384.089 479.937 383.167 480.862 382.936C484.072 384.944 487.585 386.424 491.266 387.32C495.203 388.262 499.239 388.727 503.287 388.705C514.115 388.794 524.862 386.837 534.96 382.936C544.079 379.12 552.453 373.731 559.698 367.014C567.065 360.364 573.311 352.572 578.194 343.939C583.524 334.952 587.717 325.342 590.678 315.326L573.802 318.326C567.577 318.286 561.578 315.99 556.924 311.865V311.865Z" fill="white"/>
<path d="M574.725 318.095C573.834 316.384 573.368 314.485 573.368 312.557C573.368 310.629 573.834 308.729 574.725 307.018C576.593 303.031 579.091 299.369 582.124 296.173C591.846 295.768 601.478 294.14 610.791 291.327C620.526 288.641 629.972 285.009 638.996 280.482C647.843 275.961 656.344 270.794 664.428 265.021C671.838 259.418 678.866 253.328 685.466 246.793C691.096 241.086 696.131 234.823 700.494 228.102C703.892 222.803 706.318 216.943 707.661 210.796C699.847 210.218 691.996 211.158 684.542 213.564C676.922 215.898 669.681 219.318 663.041 223.718C655.411 228.717 648.218 234.352 641.54 240.562C634.373 247.254 626.744 254.868 618.421 263.637C617.304 265.063 615.907 266.249 614.318 267.122C612.728 267.995 610.978 268.536 609.173 268.714C606.244 268.967 603.315 268.236 600.85 266.637C607.324 258.099 612.641 250.715 616.802 244.946C620.638 239.533 623.892 233.732 626.512 227.64C628.838 221.723 630.317 215.509 630.905 209.18C631.843 200.831 632.228 192.429 632.061 184.028C632.061 177.567 632.061 171.799 632.061 166.722C632.061 161.645 632.061 156.338 632.061 150.8C631.901 139.461 633.54 128.169 636.916 117.341C640.694 106.66 646.591 96.8503 654.255 88.4971C655.103 88.6474 655.91 88.9713 656.626 89.4478C657.342 89.9243 657.952 90.5431 658.417 91.266C658.741 92.6316 658.741 94.0545 658.417 95.4201C658.835 97.3982 658.835 99.441 658.417 101.419L654.718 109.034C652.667 113.432 650.966 117.984 649.631 122.649C648.625 126.353 647.93 130.135 647.551 133.955C647.326 137.721 647.326 141.497 647.551 145.262V157.953C647.551 170.414 647.551 181.721 647.551 191.874C647.083 201.67 645.054 211.328 641.54 220.487C647.077 215.552 652.948 211.003 659.111 206.872C664.785 202.986 670.734 199.516 676.912 196.489C682.236 193.677 687.809 191.359 693.558 189.566C698.351 188.079 703.335 187.301 708.354 187.258C711.982 186.851 715.643 187.663 718.758 189.566C719.81 190.752 720.601 192.146 721.079 193.656C721.557 195.167 721.71 196.761 721.532 198.335C721.455 207.757 719.571 217.078 715.983 225.794C712.066 235.331 706.938 244.327 700.725 252.561C693.953 261.546 686.199 269.75 677.606 277.021C668.692 284.795 658.918 291.531 648.476 297.096C637.286 303.404 625.42 308.435 613.103 312.095C600.655 315.881 587.737 317.901 574.725 318.095V318.095Z" fill="white"/>
<path d="M330.041 685.481C314.478 685.444 298.968 683.663 283.803 680.174C269.904 677.203 256.664 671.729 244.731 664.021C245.063 662.37 245.878 660.854 247.071 659.663C248.264 658.472 249.783 657.661 251.437 657.329C255.339 656.662 259.326 656.662 263.228 657.329C273.4 659.175 283.109 660.79 292.357 661.944C302.175 663.155 312.058 663.772 321.95 663.79C348.155 663.91 374.239 660.257 399.399 652.945C423.621 645.912 446.908 635.996 468.756 623.409C490.618 610.933 511.08 596.157 529.791 579.336C549.081 562.389 567.159 544.115 583.891 524.648C595.682 510.803 607.009 499.034 616.488 488.881C625.37 479.562 634.87 470.851 644.924 462.806C653.466 455.944 662.596 449.845 672.206 444.577C681.863 439.491 692.01 435.394 702.492 432.347C702.492 426.348 702.492 421.04 702.492 415.963C702.492 410.887 702.492 406.272 700.874 401.657C699.256 397.042 700.874 392.196 699.255 387.12C697.637 382.043 699.255 376.967 699.255 371.429C699.222 363.678 699.996 355.944 701.567 348.354C702.901 342.181 704.837 336.152 707.347 330.355C709.449 325.175 712.084 320.226 715.208 315.587C718.444 311.203 721.449 307.28 724.686 303.588C725.594 303.734 726.459 304.078 727.219 304.597C727.978 305.116 728.613 305.796 729.079 306.588C729.561 308.167 729.561 309.854 729.079 311.433C728.807 313.628 728.101 315.746 726.999 317.664L724.225 324.355C720.913 331.712 718.58 339.469 717.288 347.43C716.097 355.837 715.558 364.323 715.671 372.813C715.671 377.428 715.671 383.659 715.671 391.274C716.213 398.956 716.213 406.667 715.671 414.349C715.255 422.203 713.778 429.965 711.278 437.424C709.302 443.999 704.93 449.597 699.024 453.115C688.346 456.906 678.05 461.696 668.275 467.421C659.118 472.83 650.385 478.924 642.15 485.651C633.892 492.272 626.163 499.524 619.031 507.341C611.633 515.187 604.467 523.494 597.069 532.493C580.718 553.014 563.031 572.439 544.125 590.642C525.137 608.839 504.293 625.003 481.934 638.869C459.757 652.707 436.008 663.861 411.19 672.097C385.032 680.864 357.634 685.383 330.041 685.481Z" fill="white"/>
<path d="M699.487 494.419C697.03 494.432 694.595 493.961 692.32 493.034C689.837 492.01 687.622 490.432 685.846 488.42C694.71 484.074 702.952 478.564 710.352 472.037C717.364 465.403 723.154 457.593 727.46 448.961C732.283 439.444 735.635 429.252 737.401 418.733C739.772 405.64 740.856 392.347 740.638 379.044C740.638 372.814 740.638 366.121 740.638 358.968C740.638 351.815 740.638 344.2 740.638 335.893C740.797 322.943 742.982 310.097 747.112 297.819C751.054 285.412 757.507 273.946 766.07 264.13C767.716 264.593 769.121 265.666 770 267.13C770.379 268.41 770.379 269.772 770 271.052C769.984 273.203 769.511 275.327 768.613 277.283C767.283 279.738 766.124 282.282 765.145 284.897C762.339 291.263 760.247 297.918 758.903 304.742C758.903 311.665 756.823 318.818 756.129 325.971C755.436 333.124 756.129 340.277 756.129 347.43C756.129 354.584 756.129 361.276 756.129 367.968C756.081 381.466 755.231 394.95 753.585 408.349C752.102 421.343 749.393 434.168 745.494 446.654C743.738 452.082 741.653 457.399 739.251 462.576C736.734 468.146 733.468 473.347 729.542 478.036C725.91 482.52 721.531 486.346 716.595 489.343C711.565 492.78 705.581 494.556 699.487 494.419V494.419Z" fill="white"/>
<path d="M-10.9676 665.867C-13.5573 664.121 -15.8913 662.024 -17.9031 659.636C-19.0043 658.54 -19.7311 657.124 -19.9802 655.592C-20.2292 654.059 -19.9877 652.487 -19.2901 651.099L-14.4346 641.408C-12.2843 644.927 -9.45563 647.986 -6.11204 650.407C-2.84854 652.867 0.728116 654.885 4.5233 656.406C7.29761 657.791 8.91482 659.406 9.14601 661.483C8.98477 664.2 8.10784 666.827 6.60324 669.097L5.21615 671.636C-0.542219 670.943 -6.07231 668.972 -10.9676 665.867V665.867Z" fill="white"/>
<path d="M52.3801 634.716C46.6218 634.023 41.0917 632.052 36.1964 628.947C33.6614 627.132 31.3356 625.042 29.2609 622.717C28.1597 621.62 27.4329 620.205 27.1838 618.672C26.9348 617.139 27.1763 615.566 27.8739 614.178L32.728 604.487C34.822 607.986 37.6636 610.98 41.0506 613.256C44.3656 615.701 47.9309 617.789 51.6859 619.486C52.8149 619.818 53.8361 620.44 54.6478 621.291C55.4594 622.141 56.0332 623.19 56.31 624.332C56.1567 627.122 55.2807 629.826 53.7672 632.178L52.3801 634.716ZM93.9944 622.486C88.2361 621.793 82.706 619.822 77.8107 616.717C75.2209 614.971 72.887 612.874 70.8752 610.487C69.7739 609.39 69.0471 607.975 68.7981 606.442C68.5491 604.909 68.7906 603.337 69.4881 601.949L74.3423 592.258C76.4926 595.777 79.3226 598.836 82.6662 601.256C86.0438 603.538 89.5993 605.545 93.3002 607.256C96.0745 608.641 97.6931 610.256 97.9243 612.333C97.763 615.05 96.8861 617.677 95.3815 619.947L93.9944 622.486Z" fill="white"/>
<path d="M-67.6072 840.545C-72.6792 840.656 -77.6949 839.465 -82.1724 837.085C-84.4026 835.922 -86.2212 834.103 -87.3793 831.874C-88.5374 829.644 -88.9797 827.112 -88.6464 824.623C-88.9089 823.251 -88.9089 821.842 -88.6464 820.47C-88.3445 819.308 -87.6998 818.263 -86.7965 817.47C-78.5573 820.034 -69.8664 820.827 -61.2982 819.792C-52.7301 818.758 -44.4804 815.921 -37.0911 811.47C-28.1351 805.045 -20.8425 796.582 -15.8204 786.781C-12.5837 781.012 -9.80954 775.474 -7.26643 770.166C-4.86922 765.041 -2.08732 760.104 1.05614 755.398C4.10354 750.778 7.75888 746.588 11.9229 742.938C16.8808 738.667 22.6081 735.378 28.7995 733.247L35.7349 730.478C37.8613 729.551 39.8776 728.389 41.7462 727.016C43.6426 725.316 45.2102 723.282 46.3703 721.016C47.9365 717.969 49.0269 714.701 49.6059 711.325C51.4554 703.48 55.3864 699.557 61.8597 699.557C61.6537 707.867 60.2524 716.104 57.6985 724.016C55.969 729.876 53.1454 735.357 49.3759 740.169C46.7588 743.821 43.5554 747.017 39.8962 749.629C36.8683 751.818 33.6132 753.675 30.1866 755.167L20.4769 759.091C17.4324 760.398 14.4949 761.941 11.6915 763.706C7.857 766.298 4.62381 769.682 2.21182 773.628C-0.100098 777.551 -2.41151 781.473 -4.49224 785.626C-6.57296 789.78 -11.8899 799.702 -15.589 806.163C-19.204 812.553 -23.6338 818.448 -28.7671 823.701C-33.5677 828.805 -39.2955 832.955 -45.6451 835.93C-52.5425 839.045 -60.0369 840.62 -67.6072 840.545Z" fill="white"/>
<path d="M126.823 750.091C119.995 750.448 113.199 748.931 107.173 745.707C104.107 744.162 101.724 741.538 100.486 738.341C99.2471 735.144 99.2402 731.602 100.467 728.401C100.996 727.23 101.889 726.259 103.011 725.632C106.05 727.848 109.511 729.419 113.183 730.247C117.198 731.19 121.312 731.654 125.436 731.631C136.314 731.778 147.101 729.655 157.11 725.401C166.565 721.521 175.194 715.883 182.54 708.787C190.034 701.613 196.423 693.37 201.498 684.327C206.725 674.94 210.763 664.941 213.52 654.56L210.515 653.407C208.522 655.539 206.072 657.196 203.348 658.252C200.214 659.623 196.829 660.33 193.407 660.329C190.662 660.427 187.923 660.037 185.316 659.175C182.694 658.459 180.253 657.201 178.149 655.483C175.913 653.349 174.176 650.749 173.062 647.869C171.761 643.925 171.135 639.79 171.212 635.639L183.697 610.487C185.089 607.912 186.883 605.574 189.014 603.564C190.346 602.164 191.965 601.068 193.761 600.351C195.557 599.634 197.486 599.313 199.418 599.411C203.646 599.327 207.786 600.624 211.209 603.103C214.538 605.471 217.3 608.544 219.3 612.102C221.432 615.957 223.064 620.066 224.156 624.332C225.221 628.243 225.765 632.278 225.774 636.331C225.563 649.507 223.06 662.546 218.376 674.866C213.33 688.143 206.315 700.589 197.568 711.787C188.794 722.722 178.15 732.019 166.126 739.247C154.254 746.354 140.668 750.102 126.823 750.091Z" fill="white"/>
<path d="M257.678 872.851C250.85 873.208 244.054 871.692 238.027 868.467C234.962 866.922 232.579 864.298 231.34 861.101C230.102 857.904 230.096 854.362 231.323 851.161C231.852 849.99 232.743 849.019 233.866 848.392C236.905 850.608 240.367 852.179 244.039 853.007C248.054 853.95 252.166 854.414 256.291 854.392C265.526 854.27 274.645 852.309 283.11 848.623C291.661 844.957 299.49 839.799 306.229 833.392C313.085 826.781 318.652 818.957 322.645 810.317C326.74 802.233 328.877 793.302 328.886 784.242C329.022 778.659 327.405 773.172 324.262 768.552C322.423 766.054 319.963 764.08 317.124 762.825C314.285 761.57 311.168 761.078 308.079 761.398C304.104 761.317 300.158 762.106 296.52 763.707L289.583 748.938C293.034 745.819 296.837 743.108 300.912 740.861C304.782 738.9 309.057 737.873 313.396 737.861C317.439 737.834 321.43 738.761 325.046 740.565C328.662 742.37 331.8 745.001 334.204 748.245C339.954 756.387 342.802 766.218 342.295 776.167C342.175 787.933 339.658 799.552 334.897 810.317C330.495 821.979 324.165 832.821 316.17 842.392C308.47 851.588 299.242 859.393 288.89 865.467C279.328 870.651 268.554 873.2 257.678 872.851V872.851Z" fill="white"/>
<path d="M370.731 803.395C370.631 805.237 370.07 807.025 369.101 808.597C368.132 810.169 366.786 811.474 365.183 812.394C363.811 813.049 362.31 813.39 360.79 813.39C359.27 813.39 357.769 813.049 356.397 812.394C356.651 798.29 359.553 784.357 364.951 771.32C371.246 754.789 379.889 739.247 390.613 725.17C392.134 725.706 393.447 726.709 394.361 728.036C395.275 729.362 395.743 730.944 395.7 732.554C394.879 737.083 393.148 741.4 390.613 745.245C384.775 755.142 379.899 765.574 376.05 776.397C372.894 785.069 371.099 794.176 370.731 803.395V803.395Z" fill="white"/>
<path d="M432.922 825.778C428.991 831.085 425.524 835.7 422.056 839.623C418.992 843.125 415.496 846.227 411.652 848.853C408.224 851.337 404.392 853.21 400.324 854.391C395.969 855.66 391.451 856.281 386.915 856.236C382.357 856.527 377.806 855.589 373.738 853.518C369.67 851.447 366.236 848.321 363.795 844.469C358.324 835.109 355.675 824.373 356.166 813.548C359.418 808.412 364.569 804.763 370.5 803.395C370.059 811.405 371.819 819.383 375.587 826.47C377.286 829.234 379.719 831.473 382.617 832.94C385.514 834.406 388.764 835.042 392.002 834.776C397.903 835.076 403.718 833.278 408.415 829.7C412.802 826.002 416.757 821.821 420.206 817.239C422.605 814.126 425.233 811.196 428.068 808.472C430.607 806.227 433.927 805.067 437.314 805.241C438.42 812.392 436.857 819.701 432.922 825.778V825.778Z" fill="white"/>
<path d="M501.124 799.01C497.887 802.932 494.65 807.086 490.951 811.009C487.506 815.103 483.631 818.816 479.392 822.085C475.555 825.361 471.275 828.079 466.676 830.16C462.109 832.265 457.142 833.367 452.111 833.391C448.139 833.43 444.203 832.644 440.552 831.084C437.374 829.902 434.466 828.098 431.998 825.778L436.852 804.547C442.723 808.903 449.883 811.178 457.197 811.009C464.42 811.295 471.547 809.274 477.542 805.24C483.264 800.903 488.259 795.683 492.338 789.779C488.446 784.799 482.847 781.43 476.617 780.319C471.48 779.427 466.195 779.987 461.359 781.934C460.102 781.382 459.072 780.417 458.441 779.199C457.81 777.982 457.616 776.586 457.891 775.243C458.641 772.015 460.147 769.01 462.284 766.474C467.731 759.816 474.4 754.255 481.934 750.091C489.458 746.015 497.88 743.874 506.441 743.86C512.07 743.431 517.662 745.073 522.162 748.475C523.875 750.1 525.216 752.076 526.094 754.266C526.972 756.457 527.366 758.81 527.249 761.166C527.154 764.843 526.288 768.459 524.706 771.781C523.027 775.54 520.933 779.101 518.463 782.396C515.941 785.834 513.158 789.073 510.141 792.087C507.432 794.756 504.403 797.081 501.124 799.01V799.01Z" fill="white"/>
<path d="M501.124 799.01C500.45 795.194 500.45 791.289 501.124 787.473C501.398 785.408 502.094 783.421 503.167 781.635C504.241 779.849 505.67 778.301 507.367 777.088C512.687 777.065 517.947 775.97 522.834 773.869C527.72 771.767 532.131 768.703 535.803 764.859C539.878 760.873 543.309 756.28 545.975 751.245C548.698 745.831 550.718 740.093 551.987 734.169C551.969 724.602 551.351 715.046 550.137 705.556C548.895 697.924 548.201 690.212 548.057 682.481C547.996 674.129 548.691 665.787 550.137 657.56C551.341 650.457 553.278 643.498 555.917 636.792C558.055 630.926 560.764 625.284 564.008 619.947C566.604 615.297 569.622 610.895 573.025 606.795C573.928 606.956 574.787 607.306 575.545 607.823C576.302 608.34 576.94 609.013 577.417 609.795C577.774 610.594 577.959 611.458 577.959 612.333C577.959 613.207 577.774 614.073 577.417 614.871C577.061 617.016 576.439 619.109 575.567 621.101L572.563 627.562C569.972 633.556 567.808 639.724 566.089 646.022C564.679 651.937 563.751 657.956 563.315 664.021C562.852 671.013 562.852 678.027 563.315 685.019C563.315 692.865 563.315 701.864 564.702 712.71C565.413 724.116 564.32 735.562 561.465 746.629C558.858 756.563 554.471 765.944 548.518 774.32C543.009 781.995 535.813 788.31 527.48 792.779C519.339 796.979 510.288 799.119 501.124 799.01Z" fill="white"/>
<path d="M551.986 817.47C549.455 817.477 546.945 817.008 544.588 816.085C542.141 814.998 539.938 813.428 538.114 811.47C547.068 807.185 555.329 801.585 562.62 794.857C569.74 788.266 575.614 780.45 579.96 771.782C584.714 762.317 588.064 752.212 589.902 741.784C592.157 728.676 593.239 715.394 593.138 702.095C593.138 695.942 593.138 689.249 593.138 682.019C593.138 674.866 593.138 667.251 593.138 658.944C593.199 646.004 595.306 633.155 599.38 620.87C603.125 609.131 609.003 598.181 616.72 588.565C617.598 588.712 618.431 589.058 619.152 589.579C619.874 590.099 620.466 590.779 620.881 591.565C621.156 592.859 621.156 594.194 620.881 595.488C620.898 597.67 620.339 599.819 619.262 601.718L615.795 609.333C612.963 615.669 610.943 622.337 609.784 629.178C608.376 636.183 607.45 643.275 607.01 650.406C606.549 657.552 606.549 664.72 607.01 671.866V692.403C607.04 705.898 606.267 719.382 604.697 732.785C603.078 745.756 600.372 758.569 596.606 771.089C594.988 775.935 592.675 781.242 590.132 787.011C587.664 792.485 584.477 797.607 580.654 802.241C576.89 806.749 572.444 810.642 567.476 813.779C562.761 816.433 557.394 817.712 551.986 817.47V817.47Z" fill="white"/>
</g>
<defs>
<clipPath id="clip0_2_259">
<rect width="1220" height="968" fill="white" transform="translate(-450 -40)"/>
</clipPath>
</defs>
</svg>
