<svg width="378" height="300" viewBox="0 0 378 300" fill="none" xmlns="http://www.w3.org/2000/svg">
<g clip-path="url(#clip0_2_296)">
<path d="M42.7226 120.071C41.8852 119.551 41.1374 118.899 40.5079 118.141C40.1584 117.805 39.9326 117.361 39.8678 116.88C39.8029 116.4 39.9024 115.911 40.1503 115.495L41.5793 112.491C42.2653 113.565 43.136 114.51 44.1511 115.28C45.1871 116.04 46.3156 116.665 47.5091 117.14C48.3664 117.569 48.7951 118.069 48.8665 118.713C48.8431 119.56 48.5697 120.381 48.0807 121.073L47.6521 121.859C45.8979 121.632 44.2151 121.022 42.7226 120.071V120.071Z" fill="white"/>
<path d="M35.5783 156.186C32.6867 156.397 29.7832 155.99 27.061 154.991C24.3388 153.992 21.86 152.425 19.7895 150.393C16.0348 146.014 14.1151 140.351 14.4313 134.589C14.4369 130.237 15.2359 125.923 16.789 121.859C18.3326 117.829 20.2458 113.951 22.5043 110.274C23.7903 110.846 24.3616 111.633 24.0758 112.634C23.7115 114.095 23.1845 115.51 22.5043 116.853C21.3112 119.34 20.3315 121.924 19.5754 124.577C18.8014 127.176 18.4159 129.875 18.4321 132.586C18.29 134.815 18.6173 137.049 19.3927 139.144C20.168 141.238 21.3741 143.146 22.9329 144.744C26.6877 147.871 31.4877 149.455 36.3641 149.178C40.1521 149.201 43.9179 148.596 47.509 147.39C50.7094 146.301 53.7041 144.681 56.3678 142.598C58.922 140.555 61.1608 138.145 63.0119 135.447C64.8831 132.76 66.4187 129.854 67.5843 126.794C69.9103 120.722 71.097 114.274 71.0849 107.771C71.0849 107.27 71.0849 106.627 71.0849 105.84C71.0849 105.054 71.0849 104.41 71.0849 103.909C71.0091 102.694 71.3917 101.495 72.1567 100.548C72.4291 100.223 72.7674 99.9591 73.1491 99.7742C73.5309 99.5893 73.9474 99.4876 74.3714 99.4757C79.3228 101.673 84.5316 103.234 89.8742 104.124C96.5548 105.237 103.32 105.764 110.092 105.697C110.489 106.262 110.752 106.909 110.864 107.59C110.975 108.271 110.931 108.969 110.735 109.63C110.119 110.882 109.151 111.927 107.949 112.634C97.1385 113.069 86.3452 111.417 76.1574 107.771C75.7101 111.743 75.0179 115.684 74.0853 119.571C73.2196 123.409 72.0245 127.166 70.5132 130.798C69.0043 134.355 67.1119 137.737 64.8694 140.882C62.7583 143.958 60.1789 146.685 57.2251 148.963C54.2624 151.216 50.9579 152.978 47.4375 154.184C43.6259 155.517 39.6161 156.194 35.5783 156.186V156.186Z" fill="white"/>
<path fill-rule="evenodd" clip-rule="evenodd" d="M107.938 108.762C107.549 110.057 107.604 111.445 108.092 112.705C116.374 112.62 124.628 111.734 132.74 110.06C140.833 108.575 148.773 106.349 156.458 103.409C164.134 100.561 171.545 97.0437 178.605 92.8963C189.515 86.4839 199.411 78.482 207.968 69.1537C211.039 65.8295 213.902 62.3186 216.541 58.6412C217.848 59.2039 219.263 59.4726 220.685 59.4279C222.902 59.4744 225.085 58.8782 226.972 57.7114C228.733 56.6133 230.263 55.1798 231.473 53.4922C232.679 51.8631 233.619 50.0528 234.259 48.1286C234.793 46.463 235.082 44.7285 235.116 42.9796C235.173 41.3087 234.777 39.6535 233.973 38.1883C233.608 37.5355 233.065 37.0003 232.407 36.6456C231.749 36.2909 231.004 36.1315 230.258 36.186C229.11 36.2201 228.016 36.6786 227.186 37.4732C226.017 38.5258 224.963 39.7005 224.043 40.9773C222.971 42.4075 221.828 43.9809 220.756 45.7688C220.042 46.9611 219.263 48.1533 218.485 49.3456C218.097 49.9412 217.708 50.5367 217.327 51.1323C215.952 50.5514 214.616 49.8826 213.326 49.1299L209.254 46.9844C207.968 46.3408 206.611 45.7687 205.396 45.2681C204.224 44.8582 202.994 44.6409 201.753 44.6245C199.163 44.5907 196.641 45.4491 194.609 47.056C191.988 49.2476 189.806 51.917 188.179 54.9225C188.079 55.0818 187.963 55.2578 187.835 55.4519C187.503 55.9549 187.091 56.58 186.678 57.354C186.48 57.7261 186.247 58.0725 186.028 58.399C185.615 59.0136 185.249 59.5578 185.249 60.0715C186.964 60.9297 188.536 60.3577 189.893 58.1407C191.119 56.0131 192.744 54.143 194.68 52.634C196.204 51.6265 197.997 51.1031 199.824 51.1323C200.946 51.1076 202.062 51.3019 203.11 51.7043C204.219 52.0921 205.294 52.5705 206.325 53.1347C207.396 53.7068 208.468 54.3503 209.54 55.0655C210.61 55.7797 211.752 56.4226 212.894 57.0655L212.898 57.0678C210.107 60.4536 207.126 63.677 203.968 66.7222C200.824 69.7973 197.538 72.658 194.108 75.5185C188.199 80.241 181.915 84.4742 175.319 88.1764C168.677 91.8728 161.748 95.0296 154.601 97.6162C147.503 100.221 140.187 102.184 132.74 103.48C125.316 104.85 117.784 105.544 110.235 105.554C109.134 106.338 108.326 107.466 107.938 108.762ZM227.115 44.0527C227.643 43.6237 228.293 43.3732 228.972 43.3375C229.305 43.2904 229.643 43.3172 229.965 43.4161C230.286 43.515 230.581 43.6834 230.829 43.9095C231.241 44.4147 231.468 45.0455 231.472 45.6974C231.481 46.5833 231.233 47.4529 230.758 48.2004C229.757 50.0039 228.13 51.3778 226.186 52.0622C225.152 52.4254 224.066 52.6185 222.971 52.6342H220.613L222.899 49.0585C223.568 48.008 224.308 47.0045 225.114 46.0551C225.707 45.3175 226.378 44.6462 227.115 44.0527Z" fill="white"/>
<path d="M230.687 71.2277C229.927 71.2314 229.175 71.0857 228.472 70.7986C227.693 70.4648 226.988 69.9784 226.4 69.3682C229.177 68.0578 231.732 66.3204 233.973 64.2192C236.184 62.1863 238 59.7618 239.331 57.0679C240.821 54.1182 241.857 50.9596 242.403 47.6996C243.099 43.6372 243.434 39.5209 243.403 35.3992C243.403 33.4922 243.403 31.4183 243.403 29.1776C243.403 26.9606 243.403 24.6007 243.403 22.0262C243.418 18.0096 244.094 14.023 245.404 10.2265C246.61 6.39123 248.578 2.83978 251.19 -0.214462C251.457 -0.15546 251.708 -0.0426111 251.93 0.117266C252.151 0.277144 252.337 0.480488 252.476 0.715033C252.593 1.1118 252.593 1.53409 252.476 1.93086C252.471 2.59757 252.325 3.25556 252.048 3.86165C251.623 4.61591 251.265 5.40563 250.976 6.22173C250.077 8.18252 249.43 10.2488 249.047 12.3718C249.047 14.5172 248.404 16.6627 248.19 18.9512C247.976 21.2396 248.19 23.385 248.19 25.6019C248.19 27.8188 248.19 29.8928 248.19 31.9667C248.175 36.1502 247.912 40.3292 247.404 44.4816C246.946 48.5087 246.109 52.4835 244.904 56.3529C244.361 58.0353 243.717 59.6829 242.974 61.2871C242.17 62.9992 241.163 64.6081 239.974 66.0787C238.852 67.4686 237.498 68.654 235.973 69.5828C234.423 70.6647 232.576 71.2394 230.687 71.2277V71.2277Z" fill="white"/>
<path d="M207.897 111.49C207.096 110.949 206.375 110.299 205.753 109.559C205.404 109.223 205.178 108.779 205.113 108.298C205.049 107.818 205.148 107.329 205.396 106.913L206.825 103.909C207.489 105 208.363 105.948 209.397 106.698C210.423 107.473 211.554 108.099 212.755 108.558C213.612 108.987 214.041 109.488 214.112 110.131C214.098 110.98 213.823 111.803 213.326 112.491L212.898 113.278C211.118 113.063 209.409 112.452 207.897 111.49V111.49Z" fill="white"/>
<path d="M241.617 98.6173C241.206 102.684 240.538 106.721 239.617 110.703C238.66 114.65 237.418 118.522 235.902 122.288C234.377 125.86 232.486 129.263 230.258 132.443C228.196 135.426 225.745 138.119 222.971 140.453C219.977 142.716 216.652 144.502 213.112 145.745C209.262 147.009 205.232 147.637 201.181 147.604C198.279 147.816 195.364 147.41 192.63 146.411C189.896 145.413 187.405 143.845 185.321 141.812C181.566 137.432 179.646 131.77 179.963 126.007C179.991 121.651 180.814 117.337 182.392 113.278C183.926 109.256 185.814 105.379 188.036 101.693C189.393 102.265 189.893 103.051 189.679 104.052C189.281 105.513 188.73 106.927 188.036 108.272C186.873 110.772 185.894 113.353 185.107 115.995C184.391 118.605 184.03 121.299 184.035 124.005C183.901 126.269 184.259 128.534 185.086 130.646C185.912 132.757 187.187 134.664 188.821 136.234C192.547 139.362 197.326 140.948 202.181 140.667C205.996 140.731 209.791 140.125 213.397 138.88C216.598 137.791 219.593 136.171 222.257 134.088C224.828 132.063 227.069 129.651 228.901 126.937C230.745 124.234 232.278 121.331 233.473 118.284C234.612 115.221 235.474 112.062 236.045 108.844C236.61 105.681 236.897 102.474 236.902 99.2611V97.3301C236.902 96.5435 236.902 95.8999 236.902 95.3993C236.824 94.2174 237.18 93.0478 237.902 92.1098C238.176 91.7623 238.522 91.4795 238.918 91.2817C239.313 91.084 239.746 90.976 240.188 90.9655C241.276 91.502 242.476 91.7715 243.689 91.7521C243.865 92.4079 243.865 93.0986 243.689 93.7544C243.675 95.0587 243.331 96.3381 242.689 97.4733C242.409 97.9205 242.045 98.3089 241.617 98.6173Z" fill="white"/>
<path d="M265.836 73.23C265.752 74.3589 266.027 75.4854 266.622 76.4482C267.123 77.1728 267.724 77.8227 268.408 78.379L270.194 79.6662C270.447 79.8283 270.658 80.0497 270.808 80.3114C270.957 80.573 271.04 80.8668 271.051 81.168C271.003 81.8137 270.833 82.4446 270.551 83.0274C270.191 83.759 269.76 84.4536 269.265 85.1013C268.742 85.7232 268.142 86.276 267.479 86.7462C266.937 87.1994 266.256 87.4518 265.55 87.4612C265.012 86.8443 264.355 86.3427 263.618 85.9863C262.881 85.6299 262.081 85.4263 261.263 85.3875C260.11 85.3925 259.005 85.8554 258.191 86.6747C257.098 87.7729 256.139 88.9973 255.334 90.3219C254.624 91.385 253.861 92.4113 253.048 93.397C252.153 94.4337 251.146 95.3688 250.047 96.1859C248.892 97.04 247.616 97.715 246.261 98.1883C244.744 98.7137 243.15 98.9797 241.545 98.975C240.938 97.7793 240.771 96.4079 241.071 95.1008C241.371 93.7936 242.121 92.6338 243.189 91.8236C244.742 91.8842 246.287 91.565 247.69 90.8939C248.912 90.3241 250.043 89.5772 251.047 88.677C251.993 87.8012 252.832 86.817 253.548 85.7449C254.235 84.6659 254.998 83.6383 255.834 82.6699C256.699 81.8038 257.658 81.0363 258.692 80.3814C259.644 79.6505 260.783 79.2043 261.978 79.0942L265.836 73.23Z" fill="white"/>
<path d="M261.692 78.8081C261.334 77.1829 261.334 75.4989 261.692 73.8736C262.036 72.2943 262.489 70.7411 263.049 69.2253C263.621 67.795 264.193 66.3647 264.693 64.9344C265.179 63.7032 265.445 62.396 265.479 61.0726C265.479 60.2145 265.479 59.0704 265.479 57.6401C265.479 56.2098 265.479 54.8511 265.479 53.4208C265.479 51.9905 265.479 50.5602 265.479 49.13C265.479 47.6997 265.479 46.4839 265.479 45.4827C265.448 42.9704 265.615 40.4598 265.979 37.9738C266.244 35.9037 266.723 33.8666 267.407 31.8951C268.041 30.1011 268.855 28.3759 269.837 26.7461C270.836 25.0906 271.958 23.5128 273.195 22.0262C273.488 22.0876 273.766 22.2081 274.011 22.3802C274.257 22.5523 274.465 22.7725 274.623 23.0275C274.913 23.5523 275.061 24.144 275.052 24.7438C274.963 25.4217 274.82 26.0914 274.623 26.7461C274.357 27.4561 274.047 28.1488 273.694 28.8201C272.177 31.8137 271.37 35.1176 271.337 38.4745C271.337 42.1932 271.337 46.4839 271.337 51.1323C271.532 54.264 271.364 57.4076 270.837 60.5006C270.244 63.9443 269.06 67.2591 267.336 70.298C266.829 71.0655 266.533 71.9537 266.479 72.8726C266.521 73.6825 266.521 74.4941 266.479 75.304C266.464 75.9465 266.318 76.5791 266.05 77.1632C265.753 77.6886 265.305 78.1123 264.764 78.379C263.805 78.8221 262.736 78.9714 261.692 78.8081V78.8081Z" fill="white"/>
<path d="M282.625 159.046C281.789 158.553 281.041 157.925 280.41 157.187C280.12 156.794 279.964 156.317 279.964 155.828C279.964 155.339 280.12 154.863 280.41 154.47L281.839 151.466C282.503 152.557 283.378 153.505 284.411 154.255C285.48 154.962 286.603 155.584 287.769 156.114C288.626 156.543 289.055 157.044 289.126 157.688C289.121 158.538 288.846 159.365 288.34 160.048L287.912 160.834C286.023 160.713 284.2 160.096 282.625 159.046V159.046Z" fill="white"/>
<path d="M180.106 166.984H173.819C171.247 166.984 168.461 166.985 165.46 166.484C162.459 165.983 159.459 165.84 156.458 165.34C153.658 164.819 150.909 164.053 148.242 163.051C146.05 162.196 144.038 160.934 142.313 159.333C141.549 158.626 140.949 157.76 140.554 156.796C140.159 155.833 139.979 154.795 140.027 153.755V153.254C140.06 153.137 140.06 153.013 140.027 152.896C146.085 155.676 152.508 157.578 159.102 158.546C166.379 159.705 173.737 160.279 181.106 160.262C188.272 160.265 195.43 159.812 202.539 158.904C209.76 157.893 216.917 156.46 223.971 154.613C231.116 152.753 238.113 150.362 244.904 147.461C251.591 144.517 257.999 140.974 264.05 136.877C266.803 135.05 269.451 133.069 271.98 130.942C274.922 128.515 277.713 125.912 280.339 123.147C282.935 120.447 285.323 117.554 287.483 114.493C289.528 111.868 291.122 108.919 292.198 105.769C291.731 105.539 291.218 105.417 290.698 105.411H288.341H285.697H282.982C280.899 105.478 278.826 105.087 276.91 104.267C276.078 103.815 275.402 103.123 274.969 102.281C274.536 101.44 274.366 100.487 274.481 99.547C274.477 98.3609 274.645 97.1805 274.981 96.0429C275.338 94.8272 275.767 93.6115 276.267 92.3243C276.767 91.037 277.338 89.8928 277.981 88.677C278.624 87.4613 279.124 86.3885 279.624 85.2443L282.982 78.5936C283.911 76.7342 284.626 75.161 285.197 73.7307C285.734 72.4642 286.141 71.1462 286.411 69.7973C286.711 68.508 286.854 67.1876 286.84 65.8641C286.91 63.909 286.304 61.9896 285.126 60.429C283.835 58.8692 282.227 57.6018 280.41 56.7104L284.197 49.559C286.52 50.4804 288.477 52.1383 289.769 54.279C291.003 56.4587 291.644 58.9248 291.627 61.4303C291.62 63.8438 291.308 66.2467 290.698 68.5817C290.066 71.0135 289.278 73.4022 288.341 75.7331C287.431 77.9778 286.405 80.1737 285.268 82.3122L282.125 88.0334C281.196 89.7498 280.41 91.3229 279.767 92.6102C279.262 93.5908 278.947 94.6586 278.839 95.7568C278.846 96.0863 278.935 96.409 279.097 96.6959C279.259 96.9828 279.489 97.2252 279.767 97.4017C280.545 97.816 281.393 98.0826 282.268 98.1883C283.433 98.2678 284.603 98.2678 285.768 98.1883H292.198C292.937 98.2277 293.662 98.3972 294.341 98.6889C294.643 98.7995 294.92 98.9708 295.153 99.1922C295.387 99.4135 295.572 99.6802 295.699 99.9761C296.044 100.79 296.215 101.667 296.199 102.551C296.162 104.61 295.751 106.646 294.985 108.558C294.15 110.743 293.122 112.849 291.913 114.851C290.721 116.945 289.384 118.952 287.912 120.858C286.412 122.789 285.054 124.505 283.768 125.936C277.471 132.926 270.262 139.036 262.336 144.1C254.143 149.273 245.426 153.564 236.33 156.901C218.305 163.457 199.284 166.844 180.106 166.913V166.984Z" fill="white"/>
<path d="M311.656 109.049C310.879 108.297 310.283 107.379 309.911 106.363C309.54 105.348 309.404 104.261 309.513 103.185L313.37 95.3183C313.826 94.5367 314.378 93.8159 315.014 93.173C315.445 92.7501 315.961 92.4231 316.527 92.2136C317.094 92.0041 317.698 91.9167 318.3 91.9571C319.574 91.9259 320.825 92.3016 321.872 93.0298C322.925 93.7868 323.803 94.7625 324.444 95.8903C325.102 97.06 325.606 98.3101 325.944 99.6092C326.237 100.828 326.405 102.074 326.445 103.328C326.395 107.443 325.596 111.514 324.087 115.342C322.599 119.468 320.426 123.312 317.657 126.713C315 130.153 311.7 133.043 307.941 135.223C304.29 137.467 300.08 138.632 295.796 138.584C293.696 138.67 291.608 138.227 289.723 137.297C289.012 136.903 288.422 136.322 288.019 135.615C287.616 134.909 287.415 134.105 287.437 133.292C287.33 132.821 287.33 132.332 287.437 131.862C287.437 131.433 287.866 131.147 288.152 131.075C289.144 131.697 290.229 132.156 291.367 132.434C292.583 132.726 293.83 132.87 295.081 132.863C298.427 132.891 301.748 132.284 304.869 131.075C307.687 129.893 310.275 128.222 312.513 126.141C314.79 124.08 316.72 121.665 318.229 118.989C319.876 116.204 321.171 113.226 322.087 110.122L316.872 111.051C314.948 111.039 313.094 110.328 311.656 109.049V109.049Z" fill="white"/>
<path d="M317.157 110.98C316.881 110.45 316.737 109.861 316.737 109.263C316.737 108.666 316.881 108.077 317.157 107.547C317.734 106.311 318.506 105.176 319.443 104.186C322.447 104.06 325.424 103.556 328.302 102.684C331.31 101.852 334.229 100.726 337.018 99.3229C339.752 97.9219 342.379 96.3203 344.877 94.5314C347.166 92.7947 349.338 90.9075 351.378 88.882C353.117 87.1134 354.673 85.1726 356.021 83.0894C357.071 81.4471 357.821 79.631 358.236 77.7259C355.822 77.5467 353.395 77.8382 351.092 78.584C348.737 79.3072 346.5 80.367 344.448 81.7306C342.09 83.2801 339.867 85.0264 337.804 86.951C335.589 89.0249 333.232 91.3848 330.66 94.1024C330.314 94.5445 329.883 94.912 329.392 95.1824C328.9 95.4529 328.36 95.6206 327.802 95.6757C326.897 95.7543 325.992 95.5278 325.23 95.0321C327.23 92.3861 328.873 90.0976 330.159 88.3098C331.345 86.6321 332.35 84.8344 333.16 82.9462C333.879 81.1126 334.336 79.1867 334.517 77.2252C334.807 74.6376 334.926 72.0336 334.874 69.4303C334.874 67.4279 334.874 65.64 334.874 64.0667C334.874 62.4934 334.874 60.8486 334.874 59.1323C334.825 55.6182 335.332 52.1184 336.375 48.7627C337.542 45.4526 339.365 42.4123 341.733 39.8235C341.995 39.8701 342.244 39.9704 342.466 40.1181C342.687 40.2658 342.875 40.4576 343.019 40.6816C343.119 41.1048 343.119 41.5458 343.019 41.969C343.148 42.5821 343.148 43.2152 343.019 43.8282L341.876 46.1883C341.242 47.5512 340.716 48.962 340.304 50.4076C339.993 51.5558 339.778 52.7278 339.661 53.9117C339.592 55.0787 339.592 56.249 339.661 57.416V61.3492C339.661 65.2109 339.661 68.7151 339.661 71.8617C339.517 74.8976 338.89 77.891 337.804 80.7293C339.515 79.1999 341.329 77.7902 343.233 76.5101C344.987 75.3055 346.825 74.2301 348.734 73.2921C350.38 72.4206 352.102 71.7023 353.878 71.1465C355.359 70.6857 356.899 70.4447 358.45 70.4313C359.572 70.3052 360.703 70.5569 361.665 71.1465C361.99 71.5141 362.235 71.9459 362.383 72.4141C362.53 72.8822 362.578 73.3763 362.522 73.8641C362.499 76.7843 361.917 79.673 360.808 82.3742C359.597 85.33 358.013 88.118 356.093 90.6698C354 93.4544 351.604 95.9969 348.949 98.2503C346.194 100.66 343.174 102.747 339.947 104.472C336.489 106.427 332.822 107.986 329.016 109.12C325.17 110.294 321.178 110.92 317.157 110.98V110.98Z" fill="white"/>
<path d="M241.546 224.839C236.736 224.828 231.943 224.276 227.257 223.194C222.962 222.274 218.871 220.577 215.183 218.188C215.286 217.677 215.538 217.207 215.906 216.838C216.275 216.469 216.744 216.217 217.255 216.114C218.461 215.908 219.693 215.908 220.899 216.114C224.043 216.687 227.043 217.187 229.9 217.545C232.934 217.92 235.988 218.111 239.045 218.117C247.143 218.154 255.203 217.022 262.978 214.756C270.463 212.576 277.659 209.503 284.411 205.602C291.166 201.735 297.489 197.156 303.272 191.943C309.232 186.691 314.819 181.027 319.989 174.994C323.633 170.703 327.133 167.056 330.062 163.909C332.807 161.021 335.743 158.322 338.85 155.828C341.489 153.702 344.31 151.811 347.28 150.179C350.264 148.603 353.4 147.333 356.639 146.389C356.639 144.529 356.639 142.884 356.639 141.311C356.639 139.738 356.639 138.307 356.139 136.877C355.639 135.447 356.139 133.945 355.639 132.372C355.139 130.798 355.639 129.225 355.639 127.509C355.628 125.107 355.868 122.71 356.353 120.358C356.765 118.444 357.364 116.576 358.139 114.779C358.789 113.174 359.603 111.64 360.568 110.203C361.568 108.844 362.497 107.628 363.497 106.484C363.778 106.529 364.045 106.636 364.28 106.797C364.515 106.957 364.711 107.168 364.855 107.414C365.004 107.903 365.004 108.426 364.855 108.915C364.771 109.595 364.552 110.252 364.212 110.846L363.355 112.92C362.331 115.2 361.61 117.604 361.211 120.071C360.843 122.677 360.676 125.307 360.711 127.938C360.711 129.368 360.711 131.299 360.711 133.659C360.879 136.04 360.879 138.43 360.711 140.811C360.583 143.245 360.126 145.65 359.354 147.962C358.743 150 357.392 151.735 355.567 152.825C352.268 154 349.086 155.484 346.065 157.259C343.236 158.935 340.537 160.824 337.992 162.908C335.441 164.96 333.052 167.208 330.848 169.631C328.562 172.062 326.348 174.637 324.061 177.426C319.009 183.785 313.543 189.805 307.701 195.447C301.833 201.086 295.392 206.096 288.483 210.393C281.63 214.682 274.291 218.139 266.622 220.691C258.539 223.408 250.072 224.809 241.546 224.839Z" fill="white"/>
<path d="M355.71 165.626C354.951 165.63 354.199 165.484 353.496 165.197C352.728 164.879 352.044 164.39 351.495 163.766C354.234 162.42 356.781 160.712 359.068 158.689C361.235 156.633 363.024 154.213 364.354 151.538C365.845 148.588 366.881 145.429 367.426 142.169C368.159 138.112 368.494 133.992 368.427 129.869C368.427 127.938 368.427 125.864 368.427 123.647C368.427 121.43 368.427 119.07 368.427 116.496C368.476 112.482 369.151 108.501 370.427 104.696C371.645 100.851 373.639 97.2973 376.286 94.2551C376.794 94.3986 377.228 94.7312 377.5 95.1848C377.617 95.5816 377.617 96.0036 377.5 96.4004C377.495 97.0671 377.349 97.7253 377.071 98.3314C376.66 99.0925 376.302 99.8809 376 100.691C375.133 102.664 374.486 104.727 374.071 106.842C374.071 108.987 373.428 111.204 373.214 113.421C372.999 115.638 373.214 117.855 373.214 120.071C373.214 122.288 373.214 124.362 373.214 126.436C373.199 130.62 372.936 134.799 372.427 138.951C371.969 142.978 371.132 146.953 369.927 150.822C369.385 152.505 368.74 154.153 367.998 155.757C367.22 157.483 366.211 159.095 364.998 160.548C363.876 161.938 362.522 163.124 360.997 164.053C359.443 165.118 357.594 165.668 355.71 165.626V165.626Z" fill="white"/>
<path d="M8.64434 217.116C6.53418 217.226 4.43426 216.756 2.57193 215.757C1.84186 215.399 1.23078 214.837 0.812479 214.139C0.394174 213.441 0.186374 212.637 0.214221 211.824C0.099166 211.354 0.099166 210.863 0.214221 210.393C0.269696 210.21 0.361397 210.039 0.484134 209.891C0.606871 209.744 0.757959 209.623 0.928467 209.535C1.87516 210.209 2.94232 210.695 4.07194 210.965C5.31351 211.253 6.58419 211.397 7.85858 211.395C10.7124 211.357 13.5297 210.749 16.1457 209.607C18.7972 208.487 21.2192 206.887 23.2899 204.887C25.4302 202.841 27.1744 200.416 28.4339 197.735C29.6994 195.23 30.3598 192.462 30.3626 189.654C30.3839 187.916 29.8593 186.215 28.8626 184.791C28.3109 184.018 27.5633 183.405 26.6972 183.015C25.831 182.626 24.8773 182.474 23.9331 182.575C22.6807 182.541 21.4365 182.786 20.2894 183.29L18.1463 178.713C19.2128 177.746 20.3874 176.906 21.6469 176.21C22.8425 175.602 24.1637 175.284 25.5046 175.28C26.7538 175.272 27.9872 175.559 29.1046 176.118C30.2219 176.677 31.1918 177.493 31.9345 178.498C33.7113 181.021 34.5916 184.068 34.4348 187.151C34.4332 190.802 33.6537 194.41 32.1486 197.735C30.6809 201.213 28.6539 204.426 26.1477 207.247C23.7848 210.113 20.9301 212.535 17.7176 214.398C14.9721 216.059 11.8499 216.994 8.64434 217.116V217.116Z" fill="white"/>
<path d="M43.9368 199.881C43.8802 200.454 43.6887 201.005 43.3782 201.49C43.0678 201.975 42.6473 202.379 42.1507 202.67C41.7221 202.855 41.2601 202.95 40.7933 202.95C40.3265 202.95 39.8646 202.855 39.4359 202.67C39.5144 198.299 40.4109 193.981 42.0792 189.94C44.0245 184.817 46.6951 180 50.0092 175.638C50.4792 175.804 50.8845 176.115 51.1669 176.526C51.4493 176.937 51.5945 177.427 51.5812 177.926C51.3274 179.33 50.7926 180.668 50.0092 181.859C48.205 184.927 46.6979 188.159 45.5083 191.514C44.5531 194.204 44.023 197.027 43.9368 199.881V199.881Z" fill="white"/>
<path d="M72.3705 205.459C71.2582 206.862 70.0655 208.199 68.7984 209.464C67.449 210.763 65.964 211.914 64.369 212.896C61.024 215.058 57.134 216.224 53.1526 216.257C51.342 216.476 49.5057 216.288 47.7765 215.708C46.0474 215.128 44.469 214.17 43.1557 212.903C41.8424 211.637 40.827 210.093 40.1836 208.385C39.5402 206.677 39.2848 204.847 39.4358 203.027C39.9417 202.232 40.5998 201.544 41.3723 201.004C42.1447 200.464 43.0162 200.082 43.9367 199.881C43.8818 201.391 44.1243 202.898 44.6509 204.315C45.1451 205.455 45.9044 206.46 46.8656 207.247C47.8698 208.004 49.0098 208.563 50.2236 208.892C51.672 209.251 53.1611 209.419 54.653 209.392C57.5893 209.394 60.4821 208.682 63.0831 207.318C65.4947 206.09 67.6523 204.416 69.4416 202.384C68.4179 200.887 66.9001 199.798 65.1548 199.309C63.4107 199.145 61.6555 199.466 60.0827 200.238C59.6966 200.045 59.3837 199.731 59.1905 199.344C58.9973 198.957 58.9342 198.518 59.0109 198.093C59.2428 197.093 59.7079 196.161 60.3683 195.375C61.8617 193.401 63.7959 191.803 66.0164 190.71C68.2369 189.617 70.6824 189.06 73.1567 189.082C75.0346 188.999 76.889 189.526 78.4433 190.584C79.0785 191.053 79.5917 191.669 79.9399 192.378C80.288 193.087 80.4605 193.87 80.4435 194.66C80.415 195.731 80.1465 196.782 79.6577 197.735C79.1178 198.799 78.4713 199.805 77.7287 200.739C76.9277 201.697 76.0689 202.604 75.1568 203.456C74.2982 204.217 73.3646 204.887 72.3705 205.459V205.459Z" fill="white"/>
<path d="M101.019 177.211C100.97 178.337 101.243 179.453 101.805 180.429C102.306 181.154 102.908 181.804 103.591 182.36L105.448 183.719C105.693 183.884 105.893 184.108 106.03 184.37C106.168 184.633 106.237 184.925 106.234 185.221C106.21 185.847 106.039 186.46 105.734 187.008C105.374 187.74 104.943 188.435 104.448 189.082C103.925 189.725 103.325 190.302 102.662 190.799C102.099 191.203 101.427 191.428 100.733 191.442C100.22 190.98 99.6425 190.594 99.0188 190.298C98.3447 189.99 97.6157 189.82 96.8752 189.797C95.976 189.78 95.0885 190.002 94.3033 190.441C93.5037 190.901 92.7605 191.453 92.0887 192.086C91.3556 192.714 90.707 193.436 90.1596 194.231C89.588 195.089 88.9451 195.876 88.3735 196.591C86.4442 199.192 84.0152 201.38 81.2293 203.027C78.4869 204.722 75.3059 205.568 72.085 205.459C71.742 204.463 71.742 203.38 72.085 202.384C72.3546 200.919 73.1405 199.599 74.2996 198.665C76.8196 198.667 79.2914 197.974 81.4439 196.663C83.9139 195.064 86.0494 193 87.7308 190.584L89.874 187.652C90.5169 186.794 91.16 186.079 91.7315 185.435C92.3372 184.826 93.0366 184.319 93.8032 183.933C94.56 183.471 95.4188 183.2 96.3039 183.147L101.019 177.211Z" fill="white"/>
<path d="M105.091 154.541C105.121 157.367 104.906 160.191 104.448 162.98C104.02 165.34 103.591 167.485 103.091 169.273C102.591 171.061 102.091 172.634 101.662 173.921C101.275 174.977 101.058 176.087 101.019 177.211C101.109 178.234 101.109 179.263 101.019 180.286C100.97 180.918 100.774 181.531 100.448 182.074C100.158 182.496 99.7273 182.8 99.2332 182.932C98.4976 183.02 97.7541 183.02 97.0185 182.932C96.6827 180.944 96.6827 178.913 97.0185 176.925C97.4236 175.314 97.9493 173.737 98.5904 172.205L100.305 167.914C100.838 166.373 101.103 164.753 101.091 163.123C101.091 162.479 101.091 161.693 100.734 160.691C100.376 159.69 100.734 158.689 100.734 157.545C100.799 155.639 101.062 153.746 101.519 151.895C102.349 148.175 103.747 144.605 105.663 141.311C106.53 139.832 107.509 138.421 108.592 137.092C109.062 137.266 109.458 137.594 109.718 138.022C109.977 138.451 110.084 138.955 110.021 139.452C109.931 140.441 109.613 141.395 109.092 142.241C108.054 143.961 107.192 145.782 106.52 147.676C105.641 149.861 105.158 152.186 105.091 154.541V154.541Z" fill="white"/>
<path d="M110.092 170.918C108.684 171.008 107.278 170.717 106.021 170.075C104.763 169.433 103.702 168.465 102.948 167.271C101.256 164.397 100.436 161.092 100.59 157.759C101.081 156.958 101.725 156.261 102.485 155.709C103.245 155.156 104.106 154.76 105.02 154.541C104.884 157.024 105.427 159.496 106.592 161.692C107.117 162.549 107.869 163.243 108.764 163.698C109.66 164.152 110.663 164.349 111.664 164.267C112.852 164.31 114.025 163.985 115.022 163.337C115.95 162.622 116.748 161.751 117.379 160.763C118.033 159.632 118.491 158.399 118.737 157.116C119.024 155.752 119.168 154.362 119.165 152.968C119.165 152.038 119.165 150.751 119.165 149.106C119.165 147.461 119.165 145.816 119.165 144.1C119.151 141.395 119.611 138.708 120.523 136.162C121.521 133.561 122.946 131.144 124.738 129.011C125.881 129.535 126.167 130.465 125.595 131.8C124.576 133.8 123.877 135.947 123.523 138.164C123.408 140.094 123.408 142.028 123.523 143.957V147.032C123.523 148.105 123.523 149.106 123.523 150.107C123.523 151.108 123.523 154.184 122.809 156.543C122.435 159 121.764 161.401 120.809 163.695C119.946 165.775 118.655 167.652 117.022 169.202C116.047 169.949 114.928 170.488 113.736 170.783C112.544 171.078 111.303 171.124 110.092 170.918Z" fill="white"/>
<path d="M74.0851 257.163C71.9845 257.258 69.8946 256.815 68.0127 255.876C67.3361 255.485 66.7748 254.922 66.3858 254.244C65.9969 253.566 65.7942 252.796 65.798 252.014C65.683 251.544 65.683 251.054 65.798 250.584C65.8535 250.4 65.9452 250.23 66.0679 250.082C66.1907 249.935 66.3418 249.814 66.5123 249.726C67.4513 250.413 68.5212 250.9 69.6557 251.156C70.8973 251.444 72.168 251.588 73.4424 251.585C76.2962 251.548 79.1135 250.94 81.7295 249.797C84.381 248.678 86.803 247.078 88.8737 245.078C91.014 243.032 92.7582 240.607 94.0177 237.926C95.2832 235.421 95.9436 232.653 95.9464 229.845C95.9677 228.107 95.4431 226.406 94.4464 224.982C93.88 224.224 93.1302 223.623 92.2679 223.235C91.4055 222.848 90.4589 222.686 89.5169 222.765C88.2645 222.732 87.0203 222.976 85.8732 223.48L83.7301 218.903C84.7889 217.887 85.9638 216.998 87.2307 216.257C88.4263 215.65 89.7475 215.331 91.0884 215.328C92.3376 215.319 93.5715 215.606 94.6888 216.166C95.8062 216.725 96.7756 217.54 97.5183 218.546C99.2951 221.069 100.175 224.116 100.019 227.199C100.017 230.85 99.2376 234.458 97.7324 237.783C96.2647 241.261 94.2377 244.474 91.7315 247.295C89.3686 250.161 86.5139 252.583 83.3014 254.446C80.514 256.13 77.3395 257.066 74.0851 257.163V257.163Z" fill="white"/>
<path d="M98.7327 263.456C96.6226 263.567 94.5226 263.097 92.6603 262.098C91.9302 261.739 91.3192 261.178 90.9009 260.48C90.4826 259.782 90.2748 258.978 90.3026 258.164C90.2289 257.691 90.2289 257.208 90.3026 256.734C90.466 256.371 90.7414 256.07 91.0884 255.876C92.0274 256.563 93.0973 257.05 94.2318 257.306C95.4726 257.598 96.7438 257.742 98.0185 257.735C101.38 257.781 104.713 257.123 107.806 255.805C110.728 254.602 113.394 252.855 115.664 250.656C117.98 248.432 119.955 245.878 121.523 243.075C123.138 240.166 124.386 237.067 125.238 233.85L124.309 233.492C123.693 234.153 122.936 234.667 122.094 234.994C121.126 235.419 120.08 235.638 119.022 235.638C118.174 235.668 117.327 235.547 116.522 235.28C115.712 235.058 114.957 234.668 114.307 234.136C113.616 233.475 113.08 232.669 112.736 231.776C112.333 230.554 112.14 229.272 112.164 227.986L116.022 220.191C116.452 219.392 117.007 218.668 117.665 218.045C118.076 217.611 118.577 217.272 119.131 217.05C119.686 216.827 120.283 216.728 120.88 216.758C122.187 216.732 123.466 217.134 124.523 217.902C125.552 218.636 126.406 219.589 127.024 220.691C127.67 221.892 128.174 223.164 128.524 224.482C128.854 225.694 129.021 226.944 129.024 228.2C128.966 232.285 128.193 236.327 126.738 240.143C125.194 244.265 123.025 248.124 120.308 251.585C117.597 254.974 114.308 257.855 110.592 260.095C107.02 262.278 102.918 263.44 98.7327 263.456V263.456Z" fill="white"/>
<path d="M136.168 218.76C135.368 218.219 134.647 217.569 134.025 216.829C133.685 216.49 133.46 216.051 133.383 215.576C133.306 215.101 133.381 214.614 133.596 214.183L135.097 211.18C135.761 212.271 136.635 213.219 137.669 213.969C138.677 214.732 139.782 215.357 140.955 215.828C141.812 216.257 142.312 216.758 142.384 217.402C142.334 218.244 142.063 219.058 141.598 219.762L141.169 220.548C139.39 220.334 137.681 219.723 136.168 218.76V218.76Z" fill="white"/>
<path d="M155.744 209.106C153.964 208.891 152.255 208.28 150.743 207.318C149.959 206.756 149.241 206.108 148.6 205.387C148.259 205.048 148.035 204.609 147.958 204.134C147.881 203.659 147.955 203.171 148.171 202.741L149.671 199.738C150.318 200.822 151.196 201.75 152.243 202.455C153.267 203.213 154.369 203.86 155.529 204.386C155.878 204.489 156.194 204.682 156.444 204.945C156.695 205.209 156.873 205.534 156.958 205.888C156.911 206.753 156.64 207.591 156.172 208.32L155.744 209.106ZM168.603 205.316C166.824 205.101 165.115 204.49 163.602 203.528C162.802 202.987 162.081 202.337 161.459 201.597C161.119 201.257 160.894 200.819 160.817 200.344C160.74 199.869 160.815 199.381 161.03 198.951L162.53 195.948C163.195 197.038 164.069 197.986 165.103 198.736C166.146 199.444 167.245 200.066 168.389 200.596C169.246 201.025 169.746 201.526 169.818 202.169C169.768 203.011 169.497 203.825 169.032 204.529L168.603 205.316Z" fill="white"/>
<path d="M118.666 272.896C117.098 272.931 115.548 272.562 114.165 271.824C113.476 271.464 112.914 270.9 112.556 270.209C112.198 269.518 112.061 268.733 112.164 267.962C112.083 267.536 112.083 267.1 112.164 266.675C112.257 266.314 112.457 265.99 112.736 265.745C115.282 266.54 117.967 266.785 120.615 266.465C123.263 266.144 125.812 265.265 128.096 263.885C130.863 261.894 133.117 259.271 134.669 256.234C135.669 254.446 136.526 252.729 137.312 251.085C138.053 249.496 138.912 247.966 139.884 246.508C140.825 245.076 141.955 243.777 143.242 242.646C144.774 241.322 146.544 240.303 148.457 239.643L150.6 238.784C151.257 238.497 151.88 238.137 152.458 237.712C153.044 237.185 153.528 236.554 153.887 235.852C154.371 234.908 154.707 233.895 154.886 232.849C155.458 230.417 156.673 229.201 158.673 229.201C158.609 231.777 158.176 234.33 157.387 236.782C156.853 238.598 155.98 240.296 154.815 241.788C154.007 242.92 153.017 243.91 151.886 244.72C150.95 245.398 149.944 245.974 148.885 246.436L145.885 247.652C144.944 248.057 144.037 248.536 143.17 249.082C141.985 249.886 140.986 250.934 140.241 252.157C139.526 253.373 138.812 254.589 138.169 255.876C137.526 257.163 135.883 260.238 134.74 262.241C133.623 264.221 132.254 266.048 130.668 267.676C129.184 269.258 127.414 270.544 125.452 271.466C123.321 272.431 121.005 272.919 118.666 272.896Z" fill="white"/>
<path d="M178.748 244.863C176.638 244.973 174.538 244.504 172.676 243.504C171.728 243.025 170.992 242.212 170.609 241.221C170.226 240.231 170.224 239.133 170.603 238.141C170.767 237.778 171.043 237.477 171.39 237.283C172.329 237.97 173.398 238.456 174.533 238.713C175.773 239.005 177.045 239.149 178.319 239.142C181.681 239.187 185.014 238.53 188.107 237.211C191.029 236.008 193.695 234.261 195.965 232.062C198.281 229.839 200.255 227.284 201.824 224.482C203.439 221.572 204.687 218.473 205.539 215.256L204.61 214.899C203.994 215.56 203.237 216.073 202.395 216.4C201.427 216.825 200.381 217.045 199.323 217.044C198.475 217.074 197.629 216.953 196.823 216.687C196.013 216.464 195.258 216.075 194.608 215.542C193.917 214.881 193.381 214.075 193.036 213.182C192.634 211.96 192.441 210.679 192.465 209.392L196.323 201.597C196.753 200.799 197.307 200.075 197.966 199.452C198.377 199.018 198.878 198.678 199.433 198.456C199.988 198.234 200.584 198.134 201.181 198.165C202.487 198.139 203.767 198.54 204.824 199.309C205.853 200.043 206.707 200.995 207.325 202.098C207.983 203.292 208.488 204.566 208.825 205.888C209.154 207.1 209.323 208.351 209.325 209.607C209.26 213.69 208.486 217.731 207.039 221.549C205.48 225.664 203.312 229.521 200.609 232.992C197.898 236.381 194.609 239.262 190.893 241.502C187.224 243.705 183.026 244.866 178.748 244.863Z" fill="white"/>
<path d="M219.184 282.908C217.074 283.019 214.974 282.549 213.112 281.55C212.164 281.071 211.428 280.258 211.045 279.267C210.663 278.276 210.661 277.178 211.04 276.186C211.204 275.823 211.479 275.523 211.826 275.328C212.765 276.015 213.835 276.502 214.969 276.758C216.21 277.051 217.481 277.195 218.756 277.187C221.609 277.15 224.427 276.542 227.043 275.4C229.686 274.263 232.105 272.665 234.187 270.679C236.306 268.631 238.026 266.206 239.26 263.528C240.525 261.022 241.186 258.255 241.188 255.447C241.231 253.717 240.731 252.016 239.76 250.584C239.191 249.81 238.431 249.198 237.554 248.809C236.677 248.42 235.713 248.268 234.759 248.367C233.53 248.342 232.311 248.586 231.187 249.083L229.043 244.506C230.11 243.539 231.285 242.699 232.544 242.002C233.74 241.395 235.061 241.076 236.402 241.073C237.651 241.064 238.885 241.352 240.002 241.911C241.119 242.47 242.089 243.285 242.832 244.291C244.609 246.814 245.489 249.861 245.332 252.944C245.295 256.591 244.517 260.192 243.046 263.528C241.686 267.142 239.73 270.502 237.259 273.469C234.88 276.319 232.028 278.738 228.829 280.62C225.874 282.227 222.545 283.017 219.184 282.908V282.908Z" fill="white"/>
<path d="M254.119 261.383C254.088 261.954 253.915 262.508 253.616 262.995C253.316 263.482 252.9 263.887 252.405 264.172C251.981 264.375 251.517 264.48 251.047 264.48C250.578 264.48 250.114 264.375 249.69 264.172C249.768 259.8 250.665 255.483 252.333 251.442C254.279 246.319 256.949 241.502 260.263 237.139C260.733 237.305 261.139 237.616 261.421 238.028C261.704 238.439 261.849 238.929 261.835 239.428C261.581 240.832 261.047 242.169 260.263 243.361C258.459 246.428 256.952 249.661 255.763 253.016C254.788 255.703 254.233 258.525 254.119 261.383V261.383Z" fill="white"/>
<path d="M257.406 298.212C256.599 297.652 255.856 297.004 255.191 296.281C254.917 295.895 254.77 295.432 254.77 294.958C254.77 294.484 254.917 294.022 255.191 293.635L256.62 290.632C257.308 291.684 258.179 292.605 259.192 293.349C260.251 294.093 261.374 294.739 262.549 295.28C263.407 295.638 263.907 296.21 263.907 296.782C263.928 297.647 263.678 298.497 263.193 299.213L262.764 300C260.861 299.839 259.024 299.226 257.406 298.212V298.212Z" fill="white"/>
<path d="M273.337 268.32C272.123 269.964 271.051 271.395 269.98 272.61C269.033 273.696 267.953 274.657 266.765 275.471C265.705 276.241 264.521 276.821 263.264 277.187C261.918 277.58 260.522 277.773 259.12 277.759C257.712 277.849 256.306 277.558 255.049 276.917C253.791 276.275 252.73 275.306 251.976 274.112C250.285 271.212 249.467 267.884 249.618 264.529C250.623 262.938 252.215 261.807 254.048 261.383C253.912 263.865 254.455 266.338 255.62 268.534C256.145 269.391 256.897 270.085 257.792 270.539C258.688 270.994 259.692 271.191 260.692 271.108C262.516 271.201 264.313 270.644 265.764 269.535C267.12 268.389 268.342 267.093 269.408 265.673C270.149 264.708 270.961 263.8 271.837 262.956C272.622 262.261 273.648 261.901 274.695 261.955C275.036 264.171 274.553 266.436 273.337 268.32V268.32Z" fill="white"/>
<path d="M294.413 260.024C293.413 261.239 292.412 262.527 291.269 263.742C290.205 265.011 289.007 266.162 287.697 267.175C286.512 268.19 285.189 269.033 283.768 269.678C282.357 270.33 280.822 270.672 279.267 270.679C278.04 270.691 276.823 270.448 275.695 269.964C274.713 269.598 273.814 269.039 273.052 268.319L274.552 261.74C276.366 263.09 278.579 263.795 280.839 263.742C283.071 263.831 285.273 263.205 287.126 261.955C288.894 260.61 290.437 258.993 291.698 257.163C290.495 255.619 288.765 254.575 286.84 254.231C285.252 253.955 283.619 254.128 282.125 254.732C281.737 254.561 281.418 254.261 281.223 253.884C281.028 253.507 280.968 253.074 281.053 252.658C281.285 251.658 281.75 250.726 282.411 249.94C284.094 247.877 286.155 246.153 288.483 244.863C290.808 243.6 293.411 242.936 296.056 242.932C297.795 242.799 299.523 243.308 300.914 244.362C301.443 244.866 301.858 245.478 302.129 246.157C302.4 246.836 302.522 247.565 302.486 248.295C302.456 249.435 302.189 250.556 301.7 251.585C301.181 252.75 300.534 253.853 299.771 254.875C298.991 255.94 298.132 256.944 297.199 257.878C296.362 258.706 295.426 259.426 294.413 260.024V260.024Z" fill="white"/>
<path d="M294.413 260.024C294.205 258.841 294.205 257.631 294.413 256.448C294.498 255.808 294.713 255.192 295.044 254.639C295.376 254.085 295.818 253.606 296.342 253.23C297.986 253.223 299.612 252.883 301.122 252.232C302.631 251.581 303.995 250.631 305.129 249.44C306.388 248.204 307.449 246.781 308.273 245.22C309.114 243.543 309.738 241.764 310.13 239.928C310.125 236.964 309.934 234.002 309.559 231.061C309.175 228.695 308.96 226.306 308.916 223.909C308.897 221.321 309.112 218.736 309.559 216.186C309.931 213.985 310.529 211.828 311.345 209.75C312.005 207.932 312.843 206.183 313.845 204.529C314.647 203.088 315.58 201.724 316.631 200.453C316.91 200.503 317.176 200.611 317.41 200.772C317.644 200.932 317.841 201.14 317.989 201.383C318.099 201.63 318.156 201.898 318.156 202.169C318.156 202.44 318.099 202.708 317.989 202.956C317.879 203.621 317.687 204.269 317.417 204.887L316.489 206.889C315.688 208.747 315.019 210.658 314.488 212.61C314.052 214.443 313.766 216.309 313.631 218.188C313.488 220.355 313.488 222.529 313.631 224.696C313.631 227.127 313.631 229.917 314.06 233.278C314.279 236.813 313.942 240.36 313.059 243.79C312.254 246.869 310.898 249.776 309.058 252.372C307.356 254.751 305.132 256.708 302.557 258.093C300.042 259.394 297.245 260.058 294.413 260.024Z" fill="white"/>
<path d="M310.13 265.745C309.348 265.747 308.572 265.601 307.844 265.316C307.088 264.979 306.407 264.492 305.843 263.885C308.61 262.557 311.163 260.822 313.416 258.737C315.617 256.694 317.432 254.272 318.774 251.585C320.243 248.652 321.279 245.52 321.847 242.289C322.543 238.226 322.878 234.11 322.847 229.988C322.847 228.081 322.847 226.007 322.847 223.766C322.847 221.549 322.847 219.189 322.847 216.615C322.865 212.605 323.517 208.622 324.776 204.815C325.933 201.177 327.749 197.783 330.134 194.803C330.405 194.849 330.663 194.956 330.886 195.117C331.109 195.279 331.291 195.489 331.42 195.733C331.505 196.134 331.505 196.548 331.42 196.949C331.425 197.625 331.252 198.291 330.92 198.88L329.848 201.24C328.973 203.203 328.349 205.27 327.991 207.39C327.556 209.561 327.269 211.759 327.133 213.969C326.991 216.184 326.991 218.405 327.133 220.62V226.984C327.143 231.167 326.904 235.346 326.419 239.499C325.918 243.52 325.082 247.49 323.918 251.37C323.418 252.872 322.704 254.517 321.918 256.305C321.155 258.001 320.17 259.589 318.989 261.025C317.826 262.422 316.452 263.629 314.917 264.601C313.46 265.423 311.801 265.82 310.13 265.745V265.745Z" fill="white"/>
</g>
<defs>
<clipPath id="clip0_2_296">
<rect width="377" height="300" fill="white" transform="translate(0.5)"/>
</clipPath>
</defs>
</svg>
