<svg width="48" height="52" viewBox="0 0 48 52" fill="none" xmlns="http://www.w3.org/2000/svg">
<g clip-path="url(#clip0_3_3616)">
<path d="M23.9982 10.7069C29.0818 10.7069 33.2029 8.31007 33.2029 5.35344C33.2029 2.39682 29.0818 0 23.9982 0C18.9146 0 14.7935 2.39682 14.7935 5.35344C14.7935 8.31007 18.9146 10.7069 23.9982 10.7069Z" fill="#143FD6"/>
<path d="M23.9982 51.0441C29.0818 51.0441 33.2029 48.6473 33.2029 45.6907C33.2029 42.7341 29.0818 40.3372 23.9982 40.3372C18.9146 40.3372 14.7935 42.7341 14.7935 45.6907C14.7935 48.6473 18.9146 51.0441 23.9982 51.0441Z" fill="#143FD6"/>
<path d="M11.1708 18.1173C13.7126 13.7149 13.6961 8.94679 11.1339 7.46748C8.57176 5.98817 4.43416 8.35782 1.89235 12.7603C-0.649472 17.1627 -0.632974 21.9308 1.92919 23.4101C4.49136 24.8894 8.62896 22.5197 11.1708 18.1173Z" fill="#143FD6"/>
<path d="M46.1001 38.2835C48.6419 33.8811 48.6268 29.1138 46.0663 27.6355C43.5059 26.1572 39.3697 28.5277 36.8279 32.9301C34.2861 37.3325 34.3012 42.0998 36.8616 43.5781C39.422 45.0564 43.5582 42.686 46.1001 38.2835Z" fill="#143FD6"/>
<path d="M11.1352 43.5769C13.6974 42.0976 13.7139 37.3295 11.1721 32.927C8.63024 28.5246 4.49264 26.155 1.93048 27.6343C-0.631693 29.1136 -0.64819 33.8817 1.89363 38.2841C4.43545 42.6865 8.57304 45.0562 11.1352 43.5769Z" fill="#143FD6"/>
<path d="M46.0685 23.4113C48.629 21.933 48.6441 17.1657 46.1023 12.7632C43.5604 8.36082 39.4242 5.99035 36.8638 7.46867C34.3034 8.94698 34.2883 13.7143 36.8301 18.1167C39.3719 22.5191 43.5081 24.8896 46.0685 23.4113Z" fill="#143FD6"/>
</g>
<defs>
<clipPath id="clip0_3_3616">
<rect width="48" height="51.0477" fill="white"/>
</clipPath>
</defs>
</svg>
