<svg width="18" height="18" viewBox="0 0 18 18" fill="none" xmlns="http://www.w3.org/2000/svg">
<path d="M14.9999 5.99988L10.4999 2.05488C10.0874 1.68592 9.55334 1.48193 8.99989 1.48193C8.44644 1.48193 7.91241 1.68592 7.49989 2.05488L2.99989 5.99988C2.76166 6.21294 2.57156 6.4743 2.44224 6.76657C2.31292 7.05883 2.24735 7.37529 2.24989 7.69488V14.2499C2.24989 14.8466 2.48694 15.4189 2.9089 15.8409C3.33085 16.2628 3.90315 16.4999 4.49989 16.4999H13.4999C14.0966 16.4999 14.6689 16.2628 15.0909 15.8409C15.5128 15.4189 15.7499 14.8466 15.7499 14.2499V7.68738C15.7514 7.36905 15.6853 7.05404 15.556 6.76314C15.4267 6.47225 15.2372 6.2121 14.9999 5.99988ZM10.4999 14.9999H7.49989V11.2499C7.49989 11.051 7.57891 10.8602 7.71956 10.7196C7.86021 10.5789 8.05098 10.4999 8.24989 10.4999H9.74989C9.9488 10.4999 10.1396 10.5789 10.2802 10.7196C10.4209 10.8602 10.4999 11.051 10.4999 11.2499V14.9999ZM14.2499 14.2499C14.2499 14.4488 14.1709 14.6396 14.0302 14.7802C13.8896 14.9209 13.6988 14.9999 13.4999 14.9999H11.9999V11.2499C11.9999 10.6531 11.7628 10.0808 11.3409 9.65889C10.9189 9.23693 10.3466 8.99988 9.74989 8.99988H8.24989C7.65315 8.99988 7.08085 9.23693 6.6589 9.65889C6.23694 10.0808 5.99989 10.6531 5.99989 11.2499V14.9999H4.49989C4.30098 14.9999 4.11021 14.9209 3.96956 14.7802C3.82891 14.6396 3.74989 14.4488 3.74989 14.2499V7.68738C3.75002 7.58089 3.77283 7.47566 3.8168 7.37867C3.86077 7.28168 3.92489 7.19517 4.00489 7.12488L8.50489 3.18738C8.64175 3.06714 8.81771 3.00083 8.99989 3.00083C9.18207 3.00083 9.35802 3.06714 9.49489 3.18738L13.9949 7.12488C14.0749 7.19517 14.139 7.28168 14.183 7.37867C14.2269 7.47566 14.2498 7.58089 14.2499 7.68738V14.2499Z" fill="white"/>
</svg>
