<svg width="1680" height="224" viewBox="0 0 1680 224" fill="none" xmlns="http://www.w3.org/2000/svg">
<path d="M1736.77 16.5084H1775.19C1801 16.5084 1821.92 -3.50296 1821.92 -28.1875C1821.92 -52.872 1801 -72.8833 1775.19 -72.8833H1698.35C1672.54 -72.8833 1651.62 -52.872 1651.62 -28.1875" stroke="url(#paint0_linear_3_3034)" stroke-width="8" stroke-linejoin="round"/>
<path d="M-14.615 149.018C39.9603 149.018 84.2025 105.465 84.2025 51.7391C84.2025 -1.98701 39.9603 -45.54 -14.615 -45.54C-69.1903 -45.54 -113.432 -1.98701 -113.432 51.7391" stroke="url(#paint1_linear_3_3034)" stroke-width="8" stroke-linejoin="round"/>
<path d="M1234.27 -212.755H1423.47C1495.48 -212.755 1553.85 -154.134 1553.85 -81.8224C1553.85 -9.51059 1495.48 49.1101 1423.47 49.1101H1366.55" stroke="url(#paint2_linear_3_3034)" stroke-width="8" stroke-linejoin="round"/>
<path d="M1742.02 54.3684V140.617C1742.02 177.783 1711.63 207.912 1674.12 207.912H1621.13" stroke="url(#paint3_linear_3_3034)" stroke-width="8" stroke-linejoin="round"/>
<path d="M435.32 106.952V164.786C435.32 206.609 469.208 240.513 511.01 240.513" stroke="url(#paint4_linear_3_3034)" stroke-width="8" stroke-linejoin="round"/>
<path d="M1363.05 190.559H1473.76C1537.5 190.559 1590.9 240.384 1604.84 307.294" stroke="url(#paint5_linear_3_3034)" stroke-width="8"/>
<path d="M1589.59 65.2006C1589.59 37.728 1611.95 15.4568 1639.53 15.4568C1667.1 15.4568 1689.46 37.728 1689.46 65.2006V101.378C1689.46 128.851 1667.1 151.122 1639.53 151.122C1611.95 151.122 1589.59 128.851 1589.59 101.378V65.2006Z" stroke="url(#paint6_linear_3_3034)" stroke-width="8" stroke-linejoin="round"/>
<path d="M554.11 114.313L554.111 -96.8641C554.111 -138.217 520.694 -171.74 479.472 -171.74" stroke="url(#paint7_linear_3_3034)" stroke-width="8" stroke-linejoin="round"/>
<path d="M1260.55 49.11C1313.96 49.11 1357.27 6.4984 1357.27 -46.0659C1357.27 -98.6301 1313.96 -141.242 1260.55 -141.242C1207.14 -141.242 1163.84 -98.6301 1163.84 -46.0659" stroke="url(#paint8_linear_3_3034)" stroke-width="8" stroke-linejoin="round"/>
<path d="M396.424 2.83667C396.424 55.1106 354.064 97.4866 301.811 97.4866C249.558 97.4866 207.199 55.1106 207.199 2.83667" stroke="url(#paint9_linear_3_3034)" stroke-width="8" stroke-linejoin="round"/>
<path d="M478.421 50.1617V-65.5195C478.421 -88.1729 460.065 -106.537 437.422 -106.537C414.78 -106.537 396.424 -88.1729 396.424 -65.5195V-47.6139" stroke="url(#paint10_linear_3_3034)" stroke-width="8" stroke-linejoin="round"/>
<path d="M235.582 201.602C251.258 201.602 263.966 189.124 263.966 173.732C263.966 158.341 251.258 145.863 235.582 145.863C219.907 145.863 207.199 158.341 207.199 173.732C207.199 189.124 219.907 201.602 235.582 201.602Z" stroke="url(#paint11_linear_3_3034)" stroke-width="8" stroke-linejoin="round"/>
<path d="M259.761 -14.805V-130.962C259.761 -153.483 278.117 -171.74 300.76 -171.74C323.403 -171.74 341.759 -153.483 341.759 -130.962V-14.805C341.759 7.71618 323.403 25.9734 300.76 25.9734C278.117 25.9734 259.761 7.71618 259.761 -14.805Z" stroke="url(#paint12_linear_3_3034)" stroke-width="8" stroke-linejoin="round"/>
<path d="M1198.53 50.1619H1105.94C1047.34 50.1619 999.841 97.7172 999.841 156.38" stroke="url(#paint13_linear_3_3034)" stroke-width="8" stroke-linejoin="round"/>
<path d="M-15.1406 93.8163C6.63175 93.8163 24.2812 76.2753 24.2812 54.6365C24.2812 32.9978 6.63175 15.4568 -15.1406 15.4568C-36.913 15.4568 -54.5625 32.9978 -54.5625 54.6365V309.923" stroke="url(#paint14_linear_3_3034)" stroke-width="8" stroke-linejoin="round"/>
<path d="M717.144 195.817C717.144 219.921 697.83 239.462 673.998 239.462C650.166 239.462 630.852 219.921 630.852 195.817C630.852 171.714 650.166 152.173 673.998 152.173H812.719" stroke="url(#paint15_linear_3_3034)" stroke-width="8" stroke-linejoin="round"/>
<path d="M868.435 289.416V228.054C868.435 210.541 882.557 196.343 899.972 196.343C917.388 196.343 931.51 210.541 931.51 228.054V350.778C931.51 368.291 917.388 382.488 899.972 382.488C882.557 382.488 868.435 368.291 868.435 350.778V335.952" stroke="url(#paint16_linear_3_3034)" stroke-width="8" stroke-linejoin="round"/>
<path d="M813.77 196.343V356.017C813.77 403.743 852.599 442.433 900.498 442.433C948.397 442.433 987.226 403.743 987.226 356.017V318.292" stroke="url(#paint17_linear_3_3034)" stroke-width="8" stroke-linejoin="round"/>
<path d="M827.436 54.3684H781.912C748.995 54.3684 722.311 81.2066 722.311 114.313" stroke="url(#paint18_linear_3_3034)" stroke-width="8" stroke-linejoin="round"/>
<path d="M867.909 9.14673C867.909 15.5306 867.909 112.791 867.909 152.173" stroke="url(#paint19_linear_3_3034)" stroke-width="8" stroke-linejoin="round"/>
<path d="M1129.14 242.773V256.638C1129.14 276.193 1113.2 292.045 1093.53 292.045C1073.86 292.045 1057.91 276.193 1057.91 256.638V245.154C1057.91 225.747 1042.09 210.015 1022.57 210.015C1003.05 210.015 987.226 225.747 987.226 245.154V259.287" stroke="url(#paint20_linear_3_3034)" stroke-width="8" stroke-linejoin="round"/>
<path d="M2.73059 358.3C2.73059 350.022 2.73059 260.034 2.73059 208.963" stroke="url(#paint21_linear_3_3034)" stroke-width="8" stroke-linejoin="round"/>
<path d="M118.338 180.568C118.358 191.085 118.378 201.602 118.398 212.118" stroke="url(#paint22_linear_3_3034)" stroke-width="8" stroke-linejoin="round"/>
<path d="M553.556 223.687C553.576 234.204 553.596 244.72 553.616 255.237" stroke="url(#paint23_linear_3_3034)" stroke-width="8" stroke-linejoin="round"/>
<defs>
<linearGradient id="paint0_linear_3_3034" x1="1736.77" y1="-72.8833" x2="1736.77" y2="16.5084" gradientUnits="userSpaceOnUse">
<stop stop-color="white"/>
<stop offset="0.40625" stop-color="white" stop-opacity="0.8"/>
<stop offset="1" stop-color="white" stop-opacity="0.1"/>
</linearGradient>
<linearGradient id="paint1_linear_3_3034" x1="-14.615" y1="-45.54" x2="-14.615" y2="149.018" gradientUnits="userSpaceOnUse">
<stop stop-color="white"/>
<stop offset="0.40625" stop-color="white" stop-opacity="0.8"/>
<stop offset="1" stop-color="white" stop-opacity="0.1"/>
</linearGradient>
<linearGradient id="paint2_linear_3_3034" x1="1394.06" y1="-212.755" x2="1394.06" y2="49.1101" gradientUnits="userSpaceOnUse">
<stop stop-color="white"/>
<stop offset="0.40625" stop-color="white" stop-opacity="0.8"/>
<stop offset="1" stop-color="white" stop-opacity="0.1"/>
</linearGradient>
<linearGradient id="paint3_linear_3_3034" x1="1681.58" y1="54.3684" x2="1681.58" y2="207.912" gradientUnits="userSpaceOnUse">
<stop stop-color="white"/>
<stop offset="0.40625" stop-color="white" stop-opacity="0.8"/>
<stop offset="1" stop-color="white" stop-opacity="0.1"/>
</linearGradient>
<linearGradient id="paint4_linear_3_3034" x1="473.165" y1="106.952" x2="473.165" y2="240.513" gradientUnits="userSpaceOnUse">
<stop stop-color="white"/>
<stop offset="0.40625" stop-color="white" stop-opacity="0.8"/>
<stop offset="1" stop-color="white" stop-opacity="0.1"/>
</linearGradient>
<linearGradient id="paint5_linear_3_3034" x1="1483.94" y1="190.559" x2="1483.94" y2="307.294" gradientUnits="userSpaceOnUse">
<stop stop-color="white"/>
<stop offset="0.40625" stop-color="white" stop-opacity="0.8"/>
<stop offset="1" stop-color="white" stop-opacity="0.1"/>
</linearGradient>
<linearGradient id="paint6_linear_3_3034" x1="1639.53" y1="15.4568" x2="1639.53" y2="151.122" gradientUnits="userSpaceOnUse">
<stop stop-color="white"/>
<stop offset="0.40625" stop-color="white" stop-opacity="0.8"/>
<stop offset="1" stop-color="white" stop-opacity="0.1"/>
</linearGradient>
<linearGradient id="paint7_linear_3_3034" x1="516.792" y1="-171.74" x2="516.792" y2="114.313" gradientUnits="userSpaceOnUse">
<stop stop-color="white"/>
<stop offset="0.40625" stop-color="white" stop-opacity="0.8"/>
<stop offset="1" stop-color="white" stop-opacity="0.1"/>
</linearGradient>
<linearGradient id="paint8_linear_3_3034" x1="1260.55" y1="-141.242" x2="1260.55" y2="49.11" gradientUnits="userSpaceOnUse">
<stop stop-color="white"/>
<stop offset="0.40625" stop-color="white" stop-opacity="0.8"/>
<stop offset="1" stop-color="white" stop-opacity="0.1"/>
</linearGradient>
<linearGradient id="paint9_linear_3_3034" x1="301.811" y1="2.83667" x2="301.811" y2="97.4866" gradientUnits="userSpaceOnUse">
<stop stop-color="white"/>
<stop offset="0.40625" stop-color="white" stop-opacity="0.8"/>
<stop offset="1" stop-color="white" stop-opacity="0.1"/>
</linearGradient>
<linearGradient id="paint10_linear_3_3034" x1="437.422" y1="-106.537" x2="437.422" y2="50.1617" gradientUnits="userSpaceOnUse">
<stop stop-color="white"/>
<stop offset="0.40625" stop-color="white" stop-opacity="0.8"/>
<stop offset="1" stop-color="white" stop-opacity="0.1"/>
</linearGradient>
<linearGradient id="paint11_linear_3_3034" x1="235.582" y1="145.863" x2="235.582" y2="201.602" gradientUnits="userSpaceOnUse">
<stop stop-color="white"/>
<stop offset="0.40625" stop-color="white" stop-opacity="0.8"/>
<stop offset="1" stop-color="white" stop-opacity="0.1"/>
</linearGradient>
<linearGradient id="paint12_linear_3_3034" x1="300.76" y1="-171.74" x2="300.76" y2="25.9734" gradientUnits="userSpaceOnUse">
<stop stop-color="white"/>
<stop offset="0.40625" stop-color="white" stop-opacity="0.8"/>
<stop offset="1" stop-color="white" stop-opacity="0.1"/>
</linearGradient>
<linearGradient id="paint13_linear_3_3034" x1="1099.18" y1="50.1619" x2="1099.18" y2="156.38" gradientUnits="userSpaceOnUse">
<stop stop-color="white"/>
<stop offset="0.40625" stop-color="white" stop-opacity="0.8"/>
<stop offset="1" stop-color="white" stop-opacity="0.1"/>
</linearGradient>
<linearGradient id="paint14_linear_3_3034" x1="-15.1406" y1="15.4568" x2="-15.1406" y2="309.923" gradientUnits="userSpaceOnUse">
<stop stop-color="white"/>
<stop offset="0.40625" stop-color="white" stop-opacity="0.8"/>
<stop offset="1" stop-color="white" stop-opacity="0.1"/>
</linearGradient>
<linearGradient id="paint15_linear_3_3034" x1="721.786" y1="152.173" x2="721.786" y2="239.462" gradientUnits="userSpaceOnUse">
<stop stop-color="white"/>
<stop offset="0.40625" stop-color="white" stop-opacity="0.8"/>
<stop offset="1" stop-color="white" stop-opacity="0.1"/>
</linearGradient>
<linearGradient id="paint16_linear_3_3034" x1="899.972" y1="196.343" x2="899.972" y2="382.488" gradientUnits="userSpaceOnUse">
<stop stop-color="white"/>
<stop offset="0.40625" stop-color="white" stop-opacity="0.8"/>
<stop offset="1" stop-color="white" stop-opacity="0.1"/>
</linearGradient>
<linearGradient id="paint17_linear_3_3034" x1="900.498" y1="196.343" x2="900.498" y2="442.433" gradientUnits="userSpaceOnUse">
<stop stop-color="white"/>
<stop offset="0.40625" stop-color="white" stop-opacity="0.8"/>
<stop offset="1" stop-color="white" stop-opacity="0.1"/>
</linearGradient>
<linearGradient id="paint18_linear_3_3034" x1="774.874" y1="54.3684" x2="774.874" y2="114.313" gradientUnits="userSpaceOnUse">
<stop stop-color="white"/>
<stop offset="0.40625" stop-color="white" stop-opacity="0.8"/>
<stop offset="1" stop-color="white" stop-opacity="0.1"/>
</linearGradient>
<linearGradient id="paint19_linear_3_3034" x1="868.409" y1="9.14673" x2="868.409" y2="152.173" gradientUnits="userSpaceOnUse">
<stop stop-color="white"/>
<stop offset="0.40625" stop-color="white" stop-opacity="0.8"/>
<stop offset="1" stop-color="white" stop-opacity="0.1"/>
</linearGradient>
<linearGradient id="paint20_linear_3_3034" x1="1058.19" y1="210.015" x2="1058.19" y2="292.045" gradientUnits="userSpaceOnUse">
<stop stop-color="white"/>
<stop offset="0.40625" stop-color="white" stop-opacity="0.8"/>
<stop offset="1" stop-color="white" stop-opacity="0.1"/>
</linearGradient>
<linearGradient id="paint21_linear_3_3034" x1="3.23059" y1="208.963" x2="3.23059" y2="358.3" gradientUnits="userSpaceOnUse">
<stop stop-color="white"/>
<stop offset="0.40625" stop-color="white" stop-opacity="0.8"/>
<stop offset="1" stop-color="white" stop-opacity="0.1"/>
</linearGradient>
<linearGradient id="paint22_linear_3_3034" x1="118.368" y1="180.568" x2="118.368" y2="212.118" gradientUnits="userSpaceOnUse">
<stop stop-color="white"/>
<stop offset="0.40625" stop-color="white" stop-opacity="0.8"/>
<stop offset="1" stop-color="white" stop-opacity="0.1"/>
</linearGradient>
<linearGradient id="paint23_linear_3_3034" x1="553.586" y1="223.687" x2="553.586" y2="255.237" gradientUnits="userSpaceOnUse">
<stop stop-color="white"/>
<stop offset="0.40625" stop-color="white" stop-opacity="0.8"/>
<stop offset="1" stop-color="white" stop-opacity="0.1"/>
</linearGradient>
</defs>
</svg>
